<?xml version="1.0" encoding="UTF-8" standalone="no"?>
<svg
   xmlns:dc="http://purl.org/dc/elements/1.1/"
   xmlns:cc="http://creativecommons.org/ns#"
   xmlns:rdf="http://www.w3.org/1999/02/22-rdf-syntax-ns#"
   xmlns:svg="http://www.w3.org/2000/svg"
   xmlns="http://www.w3.org/2000/svg"
   xmlns:xlink="http://www.w3.org/1999/xlink"
   xmlns:sodipodi="http://sodipodi.sourceforge.net/DTD/sodipodi-0.dtd"
   xmlns:inkscape="http://www.inkscape.org/namespaces/inkscape"
   viewBox="0 0 1366 770"
   version="1.1"
   id="svg575"
   sodipodi:docname="black_logo_notext.svg"
   inkscape:version="1.0.1 (3bc2e813f5, 2020-09-07)">
  <metadata
     id="metadata579">
    <rdf:RDF>
      <cc:Work
         rdf:about="">
        <dc:format>image/svg+xml</dc:format>
        <dc:type
           rdf:resource="http://purl.org/dc/dcmitype/StillImage" />
        <dc:title></dc:title>
      </cc:Work>
    </rdf:RDF>
  </metadata>
  <sodipodi:namedview
     pagecolor="#ffffff"
     bordercolor="#666666"
     borderopacity="1"
     objecttolerance="10"
     gridtolerance="10"
     guidetolerance="10"
     inkscape:pageopacity="0"
     inkscape:pageshadow="2"
     inkscape:window-width="1920"
     inkscape:window-height="1017"
     id="namedview577"
     showgrid="false"
     inkscape:snap-page="false"
     inkscape:zoom="0.53938892"
     inkscape:cx="590.44764"
     inkscape:cy="402.81538"
     inkscape:window-x="-8"
     inkscape:window-y="-8"
     inkscape:window-maximized="1"
     inkscape:current-layer="g573" />
  <defs
     id="defs82">
    <style
       id="style2">.cls-1,.cls-10,.cls-37,.cls-42,.cls-46,.cls-8,.cls-9{fill:none;}.cls-2{isolation:isolate;}.cls-3{fill:#666;}.cls-4{font-size:36px;font-family:Inter-ExtraBold, Inter;font-weight:800;}.cls-36,.cls-43,.cls-5{font-size:24px;}.cls-36,.cls-5{font-family:Inter-Regular, Inter;}.cls-5{font-weight:400;}.cls-6{fill:#e71d2b;}.cls-10,.cls-37,.cls-42,.cls-46,.cls-7,.cls-8,.cls-9{stroke-miterlimit:10;}.cls-7{fill:url(#linear-gradient);stroke:url(#linear-gradient-2);}.cls-10,.cls-37,.cls-42,.cls-46,.cls-8,.cls-9{stroke-width:0.5px;}.cls-8{stroke:url(#linear-gradient-3);}.cls-9{stroke:url(#linear-gradient-4);}.cls-10{stroke:url(#linear-gradient-5);}.cls-11{opacity:0.5;}.cls-12{fill:#878787;}.cls-13{fill:#868686;}.cls-14{fill:#b2b2b2;}.cls-15{fill:#aaa;}.cls-16{fill:#dadada;}.cls-17{fill:#a9a9a9;}.cls-18{fill:#cacaca;}.cls-19{fill:#d8d8d8;}.cls-20{fill:#c9c9c9;}.cls-21{fill:#aeaeae;}.cls-22{clip-path:url(#clip-path);}.cls-23{clip-path:url(#clip-path-2);}.cls-24{fill:#d2d2d2;}.cls-25{clip-path:url(#clip-path-3);}.cls-26{clip-path:url(#clip-path-4);}.cls-27{clip-path:url(#clip-path-5);}.cls-28{clip-path:url(#clip-path-6);}.cls-29{clip-path:url(#clip-path-7);}.cls-30{clip-path:url(#clip-path-8);}.cls-31{clip-path:url(#clip-path-9);}.cls-32{clip-path:url(#clip-path-10);}.cls-33{clip-path:url(#clip-path-11);}.cls-34{clip-path:url(#clip-path-12);}.cls-35,.cls-43,.cls-47{fill:#fff;}.cls-36{fill:#333;}.cls-37{stroke:url(#linear-gradient-6);}.cls-38{clip-path:url(#clip-path-13);}.cls-39{clip-path:url(#clip-path-14);}.cls-40{clip-path:url(#clip-path-15);}.cls-41{clip-path:url(#clip-path-16);}.cls-42{stroke:url(#linear-gradient-7);}.cls-43,.cls-47{font-family:Inter-Bold, Inter;font-weight:700;}.cls-44{opacity:0.2;mix-blend-mode:multiply;}.cls-45{fill:url(#linear-gradient-8);}.cls-46{stroke:#fff;}.cls-47{font-size:27.32px;}</style>
    <linearGradient
       id="linear-gradient"
       x1="189"
       y1="271.61"
       x2="1175"
       y2="271.61"
       gradientUnits="userSpaceOnUse">
      <stop
         offset="0"
         stop-color="#662d91"
         id="stop4" />
      <stop
         offset="0.61"
         stop-color="aqua"
         stop-opacity="0.76"
         id="stop6" />
      <stop
         offset="1"
         stop-color="#1b1464"
         stop-opacity="0.76"
         id="stop8" />
    </linearGradient>
    <linearGradient
       id="linear-gradient-2"
       x1="189"
       y1="271.61"
       x2="1175"
       y2="271.61"
       gradientUnits="userSpaceOnUse">
      <stop
         offset="0"
         stop-color="#662d91"
         id="stop11" />
      <stop
         offset="0.49"
         stop-color="#44449f"
         stop-opacity="0.76"
         id="stop13" />
      <stop
         offset="1"
         stop-color="#0071bc"
         stop-opacity="0"
         id="stop15" />
    </linearGradient>
    <linearGradient
       id="linear-gradient-3"
       x1="187.75"
       y1="311.33"
       x2="686.45"
       y2="311.33"
       gradientUnits="userSpaceOnUse">
      <stop
         offset="0"
         stop-color="#662d91"
         id="stop18" />
      <stop
         offset="0.49"
         stop-color="#44449f"
         stop-opacity="0.76"
         id="stop20" />
      <stop
         offset="1"
         stop-color="#0071bc"
         stop-opacity="0.6"
         id="stop22" />
    </linearGradient>
    <linearGradient
       id="linear-gradient-4"
       x1="706"
       y1="311.33"
       x2="1204.7"
       y2="311.33"
       xlink:href="#linear-gradient-3" />
    <linearGradient
       id="linear-gradient-5"
       y1="385.29"
       x2="686.45"
       y2="385.29"
       xlink:href="#linear-gradient-3" />
    <clipPath
       id="clip-path">
      <path
         class="cls-1"
         d="M189.75,481V437.51H686V481ZM188,435.76v47H687.7v-47H188"
         id="path27" />
    </clipPath>
    <clipPath
       id="clip-path-2">
      <polyline
         class="cls-1"
         points="685.95 481 189.75 481 189.75 437.51 685.95 437.51 685.95 481"
         id="polyline30" />
    </clipPath>
    <clipPath
       id="clip-path-3">
      <path
         class="cls-1"
         d="M189.5,481.24v-44H686.19v44Zm-1.75-45.73V483H688V435.51H187.75"
         id="path33" />
    </clipPath>
    <clipPath
       id="clip-path-4">
      <polyline
         class="cls-1"
         points="686.19 481.24 189.5 481.24 189.5 437.26 686.19 437.26 686.19 481.24"
         id="polyline36" />
    </clipPath>
    <clipPath
       id="clip-path-5">
      <path
         class="cls-1"
         d="M708,481V437.51H1204.2V481Zm-1.74-45.24v47H1206v-47H706.25"
         id="path39" />
    </clipPath>
    <clipPath
       id="clip-path-6">
      <polyline
         class="cls-1"
         points="1204.2 481 707.99 481 707.99 437.51 1204.2 437.51 1204.2 481"
         id="polyline42" />
    </clipPath>
    <clipPath
       id="clip-path-7">
      <path
         class="cls-1"
         d="M707.76,481.24v-44h496.7v44ZM706,435.51V483h500.21V435.51H706"
         id="path45" />
    </clipPath>
    <clipPath
       id="clip-path-8">
      <polyline
         class="cls-1"
         points="1204.46 481.24 707.76 481.24 707.76 437.26 1204.46 437.26 1204.46 481.24"
         id="polyline48" />
    </clipPath>
    <clipPath
       id="clip-path-9">
      <path
         class="cls-1"
         d="M189.75,555V511.47H686V555ZM188,509.71v47H687.7v-47H188"
         id="path51" />
    </clipPath>
    <clipPath
       id="clip-path-10">
      <polyline
         class="cls-1"
         points="685.95 554.96 189.75 554.96 189.75 511.47 685.95 511.47 685.95 554.96"
         id="polyline54" />
    </clipPath>
    <clipPath
       id="clip-path-11">
      <path
         class="cls-1"
         d="M189.5,555.2v-44H686.19v44Zm-1.75-45.73V557H688V509.47H187.75"
         id="path57" />
    </clipPath>
    <clipPath
       id="clip-path-12">
      <polyline
         class="cls-1"
         points="686.19 555.2 189.5 555.2 189.5 511.22 686.19 511.22 686.19 555.2"
         id="polyline60" />
    </clipPath>
    <linearGradient
       id="linear-gradient-6"
       x1="706"
       y1="385.29"
       x2="1204.7"
       y2="385.29"
       xlink:href="#linear-gradient-3" />
    <clipPath
       id="clip-path-13">
      <path
         class="cls-1"
         d="M708,555V511.47H1204.2V555Zm-1.74-45.25v47H1206v-47H706.25"
         id="path64" />
    </clipPath>
    <clipPath
       id="clip-path-14">
      <polyline
         class="cls-1"
         points="1204.2 554.96 707.99 554.96 707.99 511.47 1204.2 511.47 1204.2 554.96"
         id="polyline67" />
    </clipPath>
    <clipPath
       id="clip-path-15">
      <path
         class="cls-1"
         d="M707.76,555.2v-44h496.7v44ZM706,509.47V557h500.21V509.47H706"
         id="path70" />
    </clipPath>
    <clipPath
       id="clip-path-16">
      <polyline
         class="cls-1"
         points="1204.46 555.2 707.76 555.2 707.76 511.22 1204.46 511.22 1204.46 555.2"
         id="polyline73" />
    </clipPath>
    <linearGradient
       id="linear-gradient-7"
       y1="607.17"
       x2="1204.7"
       y2="607.17"
       xlink:href="#linear-gradient-3" />
    <linearGradient
       id="linear-gradient-8"
       x1="917.02"
       y1="685.31"
       x2="1204.45"
       y2="685.31"
       gradientUnits="userSpaceOnUse">
      <stop
         offset="0"
         stop-color="#662d91"
         id="stop77" />
      <stop
         offset="1"
         stop-color="#0071bc"
         id="stop79" />
    </linearGradient>
  </defs>
  <g
     class="cls-2"
     id="g573">
    <g
       id="g830"
       transform="matrix(7.8978135,0,0,7.8978135,-4839.9744,-445.42349)">
      <path
         d="m 675.81,130.19 a 9.55,9.55 0 1 1 -9.55,-9.55 9.55,9.55 0 0 1 9.55,9.55"
         id="path92" />
      <path
         d="m 737.51,130.19 a 9.55,9.55 0 1 1 -9.54,-9.55 9.54,9.54 0 0 1 9.54,9.55"
         id="path94" />
      <path
         class="cls-6"
         d="M 706,75.57 A 9.55,9.55 0 1 1 696.44,66 9.54,9.54 0 0 1 706,75.57"
         id="path96" />
      <path
         d="m 690.89,102.88 a 9.55,9.55 0 1 1 -9.54,-9.55 9.54,9.54 0 0 1 9.54,9.55"
         id="path98" />
      <path
         d="m 721.75,102.88 a 9.55,9.55 0 1 1 -9.55,-9.55 9.55,9.55 0 0 1 9.55,9.55"
         id="path100" />
      <path
         d="m 706.66,130.19 a 9.55,9.55 0 1 1 -9.55,-9.55 9.54,9.54 0 0 1 9.55,9.55"
         id="path102" />
    </g>
  </g>
</svg>
