<?xml version="1.0" encoding="UTF-8" standalone="no"?>
<svg
   xmlns:dc="http://purl.org/dc/elements/1.1/"
   xmlns:cc="http://creativecommons.org/ns#"
   xmlns:rdf="http://www.w3.org/1999/02/22-rdf-syntax-ns#"
   xmlns:svg="http://www.w3.org/2000/svg"
   xmlns="http://www.w3.org/2000/svg"
   xmlns:sodipodi="http://sodipodi.sourceforge.net/DTD/sodipodi-0.dtd"
   xmlns:inkscape="http://www.inkscape.org/namespaces/inkscape"
   width="689"
   height="220"
   version="1.1"
   id="svg399"
   sodipodi:docname="black_logo_chq.svg"
   inkscape:version="1.0.1 (3bc2e813f5, 2020-09-07)">
  <metadata
     id="metadata405">
    <rdf:RDF>
      <cc:Work
         rdf:about="">
        <dc:format>image/svg+xml</dc:format>
        <dc:type
           rdf:resource="http://purl.org/dc/dcmitype/StillImage" />
        <dc:title></dc:title>
      </cc:Work>
    </rdf:RDF>
  </metadata>
  <defs
     id="defs403" />
  <sodipodi:namedview
     pagecolor="#ffffff"
     bordercolor="#666666"
     borderopacity="1"
     objecttolerance="10"
     gridtolerance="10"
     guidetolerance="10"
     inkscape:pageopacity="0"
     inkscape:pageshadow="2"
     inkscape:window-width="1920"
     inkscape:window-height="1017"
     id="namedview401"
     showgrid="false"
     inkscape:zoom="1.5123367"
     inkscape:cx="344.5"
     inkscape:cy="110"
     inkscape:window-x="1912"
     inkscape:window-y="-8"
     inkscape:window-maximized="1"
     inkscape:current-layer="svg399" />
  <!-- Created with Method Draw - http://github.com/duopixel/Method-Draw/ -->
  <g
     id="g397">
    <title
       id="title356">Layer 1</title>
    <metadata
       transform="matrix(0.021405382602474043,0,0,0.021405382602474043,0,0) "
       id="svg_79">image/svg+xml</metadata>
    <defs
       id="defs363">
      <style
         id="style359">.cls-1{fill:none;}.cls-2{isolation:isolate;}.cls-3{opacity:0.4;}.cls-4{clip-path:url(#clip-path);}.cls-5{mix-blend-mode:multiply;fill:url(#linear-gradient);}.cls-6{fill:#1a1a1a;}.cls-11,.cls-7,.cls-9{fill:#fff;}.cls-8{fill:#e71d2b;}.cls-9{font-size:16px;}.cls-11,.cls-9{font-family:Inter-Regular, Inter;}.cls-10{fill:#39b1dd;}.cls-11{font-size:30px;}</style>
      <clipPath
         id="svg_77">
        <rect
           id="svg_78"
           height="694"
           width="1367"
           y="74"
           class="cls-1" />
      </clipPath>
    </defs>
    <g
       stroke="null"
       id="svg_81">
      <g
         stroke="null"
         transform="matrix(0.5316533202285252,0,0,0.5316533202285252,-9032.921624575145,-6918.136862080945) "
         id="svg_42"
         class="cls-2">
        <g
           stroke="null"
           transform="matrix(8.0028843,0,0,8.0028843,-1042.76,-609.79779) "
           id="svg_43">
          <g
             stroke="null"
             id="svg_44"
             style="fill:#000000">
            <path
               stroke="null"
               id="svg_72"
               d="m2268.57566,1740.54687a4.37,4.37 0 1 1 -4.37,-4.37a4.37,4.37 0 0 1 4.37,4.37"
               class="cls-7"
               style="fill:#000000" />
            <path
               stroke="null"
               id="svg_71"
               d="m2296.83566,1740.54687a4.37,4.37 0 1 1 -4.37,-4.37a4.37,4.37 0 0 1 4.37,4.37"
               class="cls-7"
               style="fill:#000000" />
            <path
               stroke="null"
               id="svg_70"
               d="m2282.38566,1715.54687a4.37,4.37 0 1 1 -4.37,-4.37a4.36,4.36 0 0 1 4.37,4.37"
               class="cls-8"
               style="fill:#ff0000" />
            <path
               stroke="null"
               id="svg_69"
               d="m2275.48566,1728.02687a4.37,4.37 0 1 1 -4.37,-4.37a4.37,4.37 0 0 1 4.37,4.37"
               class="cls-7"
               style="fill:#000000" />
            <path
               stroke="null"
               id="svg_68"
               d="m2289.60566,1728.02687a4.37,4.37 0 1 1 -4.37,-4.37a4.37,4.37 0 0 1 4.37,4.37"
               class="cls-7"
               style="fill:#000000" />
            <path
               stroke="null"
               id="svg_67"
               d="m2282.69566,1740.54687a4.37,4.37 0 1 1 -4.37,-4.37a4.36,4.36 0 0 1 4.37,4.37"
               class="cls-7"
               style="fill:#000000" />
            <path
               stroke="null"
               id="svg_66"
               d="m2310.13566,1712.49687l1.9,0l0,2l-1.9,0l0,-2zm6.87,9.74l-1.6,0l0,0.22a3.22,3.22 0 0 1 -0.53,1.81a3.68,3.68 0 0 1 -1.51,1.32a5.18,5.18 0 0 1 -2.29,0.49a5.5,5.5 0 0 1 -2.34,-0.49a4.14,4.14 0 0 1 -1.61,-1.32a3.21,3.21 0 0 1 -0.58,-1.84a38,38 0 0 1 0.56,-4.44l2,0.11c-0.13,0.78 -0.24,1.59 -0.34,2.44a16.13,16.13 0 0 0 -0.16,1.67a1.81,1.81 0 0 0 0.31,1a2.18,2.18 0 0 0 0.88,0.72a3,3 0 0 0 1.26,0.26a2.85,2.85 0 0 0 1.23,-0.26a2.12,2.12 0 0 0 0.82,-0.71a1.8,1.8 0 0 0 0.28,-1l0,-7.71l2.07,0l0,5.84l1.6,0l-0.05,1.89z"
               class="cls-7"
               style="fill:#000000" />
            <path
               stroke="null"
               id="svg_65"
               d="m2320.69566,1723.47687l1.6,0l0,1.93l-1.6,0l0,-1.93zm-2.35,0l1.6,0l0,1.93l-1.6,0l0,-1.93zm5.35,-3.13l0,1.89l-6.69,0l0,-1.89l2.3,0l0,-5.84l2.07,0l0,5.84l2.32,0z"
               class="cls-7"
               style="fill:#000000" />
            <path
               stroke="null"
               id="svg_64"
               d="m2327.51566,1723.47687l1.9,0l0,2l-1.9,0l0,-2zm5.68,-3.13l0,1.89l-9.5,0l0,-1.89l5.83,0l0,-2.9a1.49,1.49 0 0 0 -0.28,-1a1.24,1.24 0 0 0 -1,-0.33l-2.48,0.09l-0.79,0l-0.06,-1.38a16.45,16.45 0 0 1 2,-0.36a15.28,15.28 0 0 1 1.93,-0.15a3,3 0 0 1 2.11,0.62a2.56,2.56 0 0 1 0.68,1.94l0,3.44l1.56,0.03z"
               class="cls-7"
               style="fill:#000000" />
            <path
               stroke="null"
               id="svg_63"
               d="m2337.46566,1719.45687c0.05,0.37 0.1,0.67 0.15,0.89l3.22,0l0,-2a2.48,2.48 0 0 0 -0.42,-1.59a2.08,2.08 0 0 0 -1.58,-0.53a5.83,5.83 0 0 0 -1.18,0.12a11.67,11.67 0 0 0 -0.22,2a9.77,9.77 0 0 0 0.07,1.07m4,-4.63a2.34,2.34 0 0 1 1.16,1.32a6.83,6.83 0 0 1 0.31,2.23l0,3.86l-9.73,0l0,-1.85l2.41,0a10.76,10.76 0 0 1 -0.22,-2a10.91,10.91 0 0 1 0.17,-1.82a16.64,16.64 0 0 1 0.39,-1.69a5.77,5.77 0 0 1 1.24,-0.36a10.07,10.07 0 0 1 1.82,-0.15a5.23,5.23 0 0 1 2.45,0.46"
               class="cls-7"
               style="fill:#000000" />
            <path
               stroke="null"
               id="svg_62"
               d="m2350.57566,1722.23687l-2.55,0a5.31,5.31 0 0 1 -0.66,2.83a2.14,2.14 0 0 1 -1.92,1c-0.14,0 -0.51,0 -1.13,-0.07l0,-1.84l0.52,0a0.94,0.94 0 0 0 0.84,-0.44a2.41,2.41 0 0 0 0.28,-1.25l0,-8l2.07,0l0,5.84l2.55,0l0,1.93z"
               class="cls-7"
               style="fill:#000000" />
            <a
               stroke="null"
               id="svg_60"
               style="fill:#000000">
              <path
                 stroke="null"
                 id="svg_61"
                 d="m2352.94566,1723.47687l1.89,0l0,2l-1.9,0l0.01,-2zm4.33,-3.13l0,1.89l-6.7,0l0,-1.89l2.26,0l0,-5.84l2.08,0l0,5.84l2.36,0z"
                 class="cls-7"
                 style="fill:#000000" />
            </a>
            <path
               stroke="null"
               id="svg_59"
               d="m2361.54566,1719.46687c0,0.36 0.1,0.66 0.15,0.88l3.23,0l0,-2a2.48,2.48 0 0 0 -0.42,-1.59a2.09,2.09 0 0 0 -1.67,-0.53a5.81,5.81 0 0 0 -1.17,0.12a10.78,10.78 0 0 0 -0.22,2a10.11,10.11 0 0 0 0.07,1.08m7.14,0.88l0,1.89l-0.82,0a0.81,0.81 0 0 1 -0.5,-0.18a1.17,1.17 0 0 1 -0.34,-0.48l0,0.66l-9.72,0l0,-1.85l2.41,0a9.94,9.94 0 0 1 -0.22,-2a10.91,10.91 0 0 1 0.17,-1.82a12.57,12.57 0 0 1 0.39,-1.69a5.77,5.77 0 0 1 1.24,-0.36a10.07,10.07 0 0 1 1.82,-0.15a5.23,5.23 0 0 1 2.45,0.46a2.37,2.37 0 0 1 1.16,1.32a6.84,6.84 0 0 1 0.3,2.22l0,1.32a1,1 0 0 0 0.34,0.49a0.86,0.86 0 0 0 0.5,0.17l0.82,0z"
               class="cls-7"
               style="fill:#000000" />
            <polygon
               stroke="null"
               id="svg_58"
               points="2370.5856933593745,1720.346647274353 2370.5856933593745,1711.4165935634155 2372.6557617187495,1711.4165935634155 2372.6557617187495,1722.236539852478 2368.6857910156245,1722.236539852478 2368.6857910156245,1720.346647274353 "
               class="cls-7"
               style="fill:#000000" />
            <rect
               stroke="null"
               id="svg_57"
               height="10.82"
               width="2.07"
               y="1711.41687"
               x="2375.13567"
               class="cls-7"
               style="fill:#000000" />
            <path
               stroke="null"
               id="svg_56"
               d="m2388.83566,1722.23687l-2.55,0a5.31,5.31 0 0 1 -0.66,2.83a2.11,2.11 0 0 1 -1.92,1c-0.13,0 -0.51,0 -1.13,-0.07l0,-1.84l0.53,0a0.92,0.92 0 0 0 0.83,-0.44a2.32,2.32 0 0 0 0.28,-1.25l0,-8l2.07,0l0,5.84l2.55,0l0,1.93z"
               class="cls-7"
               style="fill:#000000" />
            <path
               stroke="null"
               id="svg_55"
               d="m2394.72566,1711.13687l1.59,0l0,1.89l-1.59,0l0,-1.89zm-2.27,8.42a7.84,7.84 0 0 0 0.21,0.79l2.75,0l0,-3.94c-0.45,0 -0.8,-0.05 -1.06,-0.05a3.27,3.27 0 0 0 -1.25,0.19a1.06,1.06 0 0 0 -0.57,0.65a4.53,4.53 0 0 0 -0.16,1.41a4.15,4.15 0 0 0 0.08,1m-0.08,-8.42l1.59,0l0,1.84l-1.59,0l0,-1.84zm6.62,9.21l0,1.89l-10.16,0l0,-1.94l1.66,0a7.72,7.72 0 0 1 -0.26,-2.13a4.56,4.56 0 0 1 0.44,-2.21a2.47,2.47 0 0 1 1.33,-1.15a7,7 0 0 1 2.37,-0.34a21.28,21.28 0 0 1 2.27,0.11l0.81,0.1l0,5.62l1.54,0.05z"
               class="cls-7"
               style="fill:#000000" />
            <path
               stroke="null"
               id="svg_54"
               d="m2403.26566,1719.45687c0,0.37 0.1,0.67 0.15,0.89l3.23,0l0,-2a2.48,2.48 0 0 0 -0.42,-1.59a2.08,2.08 0 0 0 -1.63,-0.51a5.83,5.83 0 0 0 -1.18,0.12a11.67,11.67 0 0 0 -0.22,2a9.77,9.77 0 0 0 0.07,1.07m4,-4.63a2.37,2.37 0 0 1 1.16,1.32a6.86,6.86 0 0 1 0.3,2.23l0,3.86l-9.72,0l0,-1.87l2.41,0a9.94,9.94 0 0 1 -0.22,-2a10.91,10.91 0 0 1 0.17,-1.82a16.64,16.64 0 0 1 0.39,-1.69a5.77,5.77 0 0 1 1.24,-0.36a10.07,10.07 0 0 1 1.82,-0.15a5.23,5.23 0 0 1 2.45,0.46"
               class="cls-7"
               style="fill:#000000" />
            <path
               stroke="null"
               id="svg_53"
               d="m2312.07566,1744.68687a5.53,5.53 0 1 1 4.8,-8.23c-0.94,0.49 -1,0.54 -2.05,1a3.17,3.17 0 0 0 -2.75,-1.57a3.24,3.24 0 1 0 0,6.47a3.18,3.18 0 0 0 2.84,-1.69c1,0.53 1.07,0.59 2,1a5.5,5.5 0 0 1 -4.89,2.94"
               class="cls-7"
               style="fill:#000000" />
            <path
               stroke="null"
               id="svg_52"
               d="m2321.11566,1739.16687a3.32,3.32 0 1 0 3.33,-3.35a3.35,3.35 0 0 0 -3.33,3.35m3.33,5.63a5.64,5.64 0 1 1 5.65,-5.63a5.63,5.63 0 0 1 -5.65,5.63"
               class="cls-7"
               style="fill:#000000" />
            <path
               stroke="null"
               id="svg_51"
               d="m2335.00566,1742.64687l2.14,0c1.39,0 2.72,-0.86 2.72,-3.27c0,-2.2 -0.78,-3.6 -3.15,-3.6l-1.71,0l0,6.87zm-2.39,-8.89l4.7,0c2.82,0 5,1.79 5,5.39c0,3.16 -1.62,5.51 -5,5.51l-4.7,0l0,-10.9z"
               class="cls-7"
               style="fill:#000000" />
            <polygon
               stroke="null"
               id="svg_50"
               points="2352.7558593749995,1735.726530086853 2352.7558593749995,1733.7166423915405 2344.7956542968745,1733.7166423915405 2344.7956542968745,1744.6465740321655 2353.2756347656245,1744.6465740321655 2353.2756347656245,1742.6265545009155 2347.1157226562495,1742.6265545009155 2347.1157226562495,1740.306608211853 2352.0957031249995,1740.306608211853 2352.0957031249995,1738.1866130946655 2347.1157226562495,1738.1866130946655 2347.1157226562495,1735.726530086853 "
               class="cls-7"
               style="fill:#000000" />
            <path
               stroke="null"
               id="svg_49"
               d="m2358.52566,1735.61687l0,3.29l1.86,0c1.15,0 2.09,-0.26 2.09,-1.65c0,-1.39 -0.94,-1.64 -2.09,-1.64l-1.86,0zm3.8,5l3,4l-2.93,0l-2.75,-3.93l-1.17,0l0,3.93l-2.41,0l0,-10.86l4.91,0c2.75,0 3.8,1.73 3.8,3.5a3.27,3.27 0 0 1 -2.59,3.37l0.14,-0.01z"
               class="cls-7"
               style="fill:#000000" />
            <path
               stroke="null"
               id="svg_48"
               d="m2369.12566,1741.42687c0.24,1.43 1.52,1.63 2.41,1.63c0.89,0 2.12,-0.24 2.12,-1.36c0,-2.32 -6.49,-0.82 -6.49,-4.9c0,-2.25 2.11,-3.3 4.08,-3.3c2.27,0 4.37,1 4.37,3.51l-2.33,-0.33c-0.29,-1.27 -1.4,-1.32 -2.15,-1.32c-0.75,0 -1.65,0.32 -1.65,1.24c0,0.92 0.52,1 3.25,1.65c0.81,0.2 3.24,0.7 3.24,3.18c0,2 -1.56,3.49 -4.53,3.49c-2.45,0 -4.64,-1.19 -4.64,-3.88l2.32,0.39z"
               class="cls-7"
               style="fill:#000000" />
            <polygon
               stroke="null"
               id="svg_47"
               points="2386.5158691406245,1737.6465740321655 2386.5158691406245,1733.6966228602905 2384.1757812499995,1733.6966228602905 2384.1757812499995,1744.6265545009155 2386.5158691406245,1744.6265545009155 2386.5158691406245,1739.9866619227905 2391.5656738281245,1739.9866619227905 2391.5656738281245,1744.6265545009155 2393.9157714843745,1744.6265545009155 2393.9157714843745,1733.7266521571655 2391.5656738281245,1733.7266521571655 2391.5656738281245,1737.6465740321655 "
               class="cls-7"
               style="fill:#000000" />
            <path
               stroke="null"
               id="svg_46"
               d="m2404.83566,1739.15687a3.23,3.23 0 1 1 -3.22,-3.23a3.22,3.22 0 0 1 3.22,3.23m2.33,-0.06a5.55,5.55 0 1 0 -5.55,5.55a5.55,5.55 0 0 0 5.55,-5.55"
               class="cls-7"
               style="fill:#000000" />
            <path
               stroke="null"
               id="svg_45"
               d="m2407.18566,1744.64687a1.53,1.53 0 1 0 -1.53,-1.53a1.52,1.52 0 0 0 1.53,1.53"
               class="cls-7"
               style="fill:#000000" />
          </g>
        </g>
      </g>
    </g>
  </g>
</svg>
