<?xml version="1.0" encoding="UTF-8" standalone="no"?>
<svg
   xmlns:dc="http://purl.org/dc/elements/1.1/"
   xmlns:cc="http://creativecommons.org/ns#"
   xmlns:rdf="http://www.w3.org/1999/02/22-rdf-syntax-ns#"
   xmlns:svg="http://www.w3.org/2000/svg"
   xmlns="http://www.w3.org/2000/svg"
   xmlns:xlink="http://www.w3.org/1999/xlink"
   xmlns:sodipodi="http://sodipodi.sourceforge.net/DTD/sodipodi-0.dtd"
   xmlns:inkscape="http://www.inkscape.org/namespaces/inkscape"
   id="SvgjsSvg3527"
   width="497.54565"
   height="417.89377"
   version="1.1"
   sodipodi:docname="community.svg"
   inkscape:version="1.0.1 (3bc2e813f5, 2020-09-07)">
  <metadata
     id="metadata342">
    <rdf:RDF>
      <cc:Work
         rdf:about="">
        <dc:format>image/svg+xml</dc:format>
        <dc:type
           rdf:resource="http://purl.org/dc/dcmitype/StillImage" />
        <dc:title></dc:title>
      </cc:Work>
    </rdf:RDF>
  </metadata>
  <sodipodi:namedview
     pagecolor="#ffffff"
     bordercolor="#666666"
     borderopacity="1"
     objecttolerance="10"
     gridtolerance="10"
     guidetolerance="10"
     inkscape:pageopacity="0"
     inkscape:pageshadow="2"
     inkscape:window-width="1920"
     inkscape:window-height="1017"
     id="namedview340"
     showgrid="false"
     fit-margin-top="5"
     fit-margin-right="5"
     fit-margin-left="5"
     fit-margin-bottom="5"
     inkscape:zoom="1.4756944"
     inkscape:cx="207.51167"
     inkscape:cy="246.98158"
     inkscape:window-x="1912"
     inkscape:window-y="-8"
     inkscape:window-maximized="1"
     inkscape:current-layer="SvgjsSvg3527" />
  <defs
     id="SvgjsDefs3528">
    <defs
       id="defs98">
      <linearGradient
         id="B"
         x1="303.07999"
         x2="306.10001"
         y1="571.23999"
         y2="534.88"
         xlink:href="#e" />
      <linearGradient
         id="h"
         x1="167.45"
         x2="336.20001"
         y1="517.28003"
         y2="517.28003"
         gradientTransform="matrix(0.26458,0,0,0.26458,22.814,0.574)"
         xlink:href="#a" />
      <linearGradient
         id="i"
         x1="711.10999"
         x2="894.01001"
         y1="297.01999"
         y2="297.01999"
         gradientTransform="matrix(0.26395,0.01823,-0.01823,0.26395,-96.86,58.526)"
         xlink:href="#b" />
      <linearGradient
         id="b"
         x1="721.59998"
         x2="722.67999"
         y1="415.57001"
         y2="432.01001"
         gradientUnits="userSpaceOnUse">
        <stop
           offset="0"
           stop-color="#ff9085"
           class="stopColorff9085 svgShape"
           id="stop6" />
        <stop
           offset="1"
           stop-color="#fb6fbb"
           class="stopColorfb6fbb svgShape"
           id="stop8" />
      </linearGradient>
      <linearGradient
         id="j"
         x1="-485.63"
         x2="-592.44"
         y1="912.51001"
         y2="1030.91"
         gradientTransform="matrix(0.25929197,-0.05026976,0.05026976,0.25929197,205.40722,-120.60695)"
         xlink:href="#a" />
      <linearGradient
         id="k"
         x1="79.779999"
         x2="308.92001"
         y1="569.44"
         y2="569.44"
         gradientTransform="matrix(0.26458,0,0,0.26458,22.814,0.574)"
         xlink:href="#c" />
      <linearGradient
         id="c"
         x1="791.67999"
         x2="650.85999"
         y1="477.51001"
         y2="531.52002"
         gradientUnits="userSpaceOnUse">
        <stop
           offset="0"
           stop-color="#b5b5b5"
           class="stopColor444b8c svgShape"
           id="stop13" />
        <stop
           offset="1"
           stop-color="#b5b5b5"
           class="stopColor26264f svgShape"
           id="stop15" />
      </linearGradient>
      <linearGradient
         id="l"
         x1="79.779999"
         x2="424.97"
         y1="657.53998"
         y2="657.53998"
         gradientTransform="matrix(0.26458,0,0,0.26458,22.814,0.574)"
         xlink:href="#c" />
      <linearGradient
         id="m"
         x1="245.94"
         x2="398.31"
         y1="425.67001"
         y2="425.67001"
         gradientTransform="matrix(0.26458,0,0,0.26458,22.814,0.574)"
         gradientUnits="userSpaceOnUse"
         xlink:href="#d" />
      <linearGradient
         id="d"
         x1="245.94"
         x2="398.31"
         y1="425.67001"
         y2="425.67001"
         gradientUnits="userSpaceOnUse">
        <stop
           offset="0"
           stop-color="#ffffff"
           class="stopColorfff svgShape"
           id="stop20" />
        <stop
           offset="1"
           stop-color="#ebeff2"
           class="stopColorebeff2 svgShape"
           id="stop22" />
      </linearGradient>
      <linearGradient
         id="aa"
         x1="2684.54"
         x2="2690"
         y1="744.46997"
         y2="749.32001"
         gradientTransform="matrix(0.26458,0,0,0.26458,-577.216,0.574)"
         xlink:href="#c" />
      <linearGradient
         id="o"
         x1="359.62"
         x2="330.35999"
         y1="369.66"
         y2="426.97"
         gradientUnits="userSpaceOnUse"
         xlink:href="#e" />
      <linearGradient
         id="e"
         x1="359.62"
         x2="330.35999"
         y1="369.66"
         y2="426.97"
         gradientUnits="userSpaceOnUse">
        <stop
           offset="0"
           stop-color="#ab316d"
           class="stopColorab316d svgShape"
           id="stop27" />
        <stop
           offset="1"
           stop-color="#792d3d"
           class="stopColor792d3d svgShape"
           id="stop29" />
      </linearGradient>
      <linearGradient
         id="p"
         x1="360.32001"
         x2="330.76999"
         y1="368.56"
         y2="426.44"
         xlink:href="#e" />
      <linearGradient
         id="q"
         x1="330.92001"
         x2="316.89001"
         y1="553.67999"
         y2="451.98001"
         gradientUnits="userSpaceOnUse">
        <stop
           offset="0"
           stop-color="#e38ddd"
           class="stopColore38ddd svgShape"
           id="stop33" />
        <stop
           offset="1"
           stop-color="#f67171"
           class="stopColor9571f6 svgShape"
           id="stop35" />
      </linearGradient>
      <linearGradient
         id="r"
         x1="321.98001"
         x2="319.92001"
         y1="467.53"
         y2="422.98001"
         xlink:href="#a" />
      <linearGradient
         id="s"
         x1="319.78"
         x2="320.57001"
         y1="428.35999"
         y2="398.25"
         xlink:href="#a" />
      <linearGradient
         id="t"
         x1="307.42999"
         x2="308.14999"
         y1="425.20001"
         y2="397.45999"
         xlink:href="#a" />
      <linearGradient
         id="u"
         x1="331.79999"
         x2="332.51001"
         y1="425.91"
         y2="398.60999"
         xlink:href="#a" />
      <linearGradient
         id="v"
         x1="251.75"
         x2="376.82999"
         y1="575.41998"
         y2="575.41998"
         gradientTransform="matrix(0.26458,0,0,0.26458,22.814,0.574)"
         xlink:href="#d" />
      <linearGradient
         id="Z"
         x1="-8675.0498"
         x2="-8710.6201"
         y1="754.31"
         y2="610.72998"
         gradientTransform="matrix(-0.26458,0,0,0.26458,-2161.078,0.574)"
         xlink:href="#c" />
      <linearGradient
         id="x"
         x1="307.63"
         x2="318.72"
         y1="515.70001"
         y2="692.41998"
         gradientUnits="userSpaceOnUse">
        <stop
           offset="0"
           stop-color="#f36f56"
           class="stopColorf36f56 svgShape"
           id="stop44" />
        <stop
           offset="1"
           stop-color="#ffc444"
           class="stopColorffc444 svgShape"
           id="stop46" />
      </linearGradient>
      <linearGradient
         id="y"
         x1="314.79001"
         x2="314.42999"
         y1="596.23999"
         y2="574.34003"
         gradientUnits="userSpaceOnUse"
         xlink:href="#f" />
      <linearGradient
         id="f"
         x1="314.79001"
         x2="314.42999"
         y1="596.23999"
         y2="574.34003"
         gradientUnits="userSpaceOnUse">
        <stop
           offset="0"
           stop-color="#311944"
           class="stopColor311944 svgShape"
           id="stop50" />
        <stop
           offset="1"
           stop-color="#893976"
           class="stopColor893976 svgShape"
           id="stop52" />
      </linearGradient>
      <linearGradient
         id="z"
         x1="314.97"
         x2="314.85999"
         y1="598.28003"
         y2="579.81"
         xlink:href="#e" />
      <linearGradient
         id="A"
         x1="313.42001"
         x2="316.48001"
         y1="571.82001"
         y2="534.96997"
         xlink:href="#e" />
      <linearGradient
         id="a"
         x1="-3064.9299"
         x2="-3064.9299"
         y1="1113.91"
         y2="1107.04"
         gradientTransform="matrix(-1,0.05,0.05,1,-2145.19,-325.82)"
         gradientUnits="userSpaceOnUse">
        <stop
           offset="0"
           stop-color="#ffc444"
           class="stopColorffc444 svgShape"
           id="stop57" />
        <stop
           offset="1"
           stop-color="#f36f56"
           class="stopColorf36f56 svgShape"
           id="stop59" />
      </linearGradient>
      <linearGradient
         id="C"
         x1="325.23001"
         x2="328.29001"
         y1="572.28003"
         y2="535.46002"
         xlink:href="#e" />
      <linearGradient
         id="D"
         x1="312.64001"
         x2="320.81"
         y1="554.20001"
         y2="528.88"
         xlink:href="#g" />
      <linearGradient
         id="g"
         x1="-5079.96"
         x2="-5063.6699"
         y1="597.59998"
         y2="597.59998"
         gradientTransform="matrix(-1,0,0,1,-4099.77,0)"
         gradientUnits="userSpaceOnUse">
        <stop
           offset="0"
           stop-color="#311944"
           class="stopColor311944 svgShape"
           id="stop64" />
        <stop
           offset="1"
           stop-color="#6b3976"
           class="stopColor6b3976 svgShape"
           id="stop66" />
      </linearGradient>
      <linearGradient
         id="E"
         x1="312.67001"
         x2="320.89001"
         y1="554.13"
         y2="528.62"
         xlink:href="#g" />
      <linearGradient
         id="Y"
         x1="1763.9399"
         x2="1763.9399"
         y1="749.95001"
         y2="740.45001"
         gradientTransform="matrix(0.26458,0,0,0.26458,-332.394,0.574)"
         xlink:href="#a" />
      <linearGradient
         id="G"
         x1="197.37"
         x2="202.5"
         y1="506.25"
         y2="539.58002"
         xlink:href="#a" />
      <linearGradient
         id="H"
         x1="194.94"
         x2="193.66"
         y1="455.07001"
         y2="540.03998"
         xlink:href="#a" />
      <linearGradient
         id="I"
         x1="153.41"
         x2="152.12"
         y1="866.16998"
         y2="951.31"
         gradientTransform="rotate(-6.51,-3491.017,474.526)"
         xlink:href="#a" />
      <linearGradient
         id="J"
         x1="212.64999"
         x2="211.36"
         y1="455.22"
         y2="540.01001"
         xlink:href="#a" />
      <linearGradient
         id="K"
         x1="199.2"
         x2="195.53"
         y1="438.73999"
         y2="470.48001"
         xlink:href="#a" />
      <linearGradient
         id="L"
         x1="-3077.95"
         x2="-3077.95"
         y1="720.17999"
         y2="676.12"
         gradientTransform="matrix(-1,0.04,0.04,1,-2611.53,133.78)"
         xlink:href="#a" />
      <linearGradient
         id="M"
         x1="-3082.0701"
         x2="-3085.6499"
         y1="635.52002"
         y2="716.21002"
         gradientTransform="matrix(-0.26458,0.01058,0.01058,0.26458,-668.153,35.97)"
         xlink:href="#f" />
      <linearGradient
         id="O"
         x1="-3074.3101"
         x2="-3081.6799"
         y1="720.40997"
         y2="696.09998"
         gradientTransform="matrix(-0.26458,0.01058,0.01058,0.26458,-668.153,35.97)"
         xlink:href="#b" />
      <linearGradient
         id="P"
         x1="-899.03003"
         x2="-899.03003"
         y1="-1622.36"
         y2="-1661.42"
         gradientTransform="matrix(-0.65,0.76,0.76,0.65,1138.61,2446.59)"
         xlink:href="#a" />
      <linearGradient
         id="Q"
         x1="-896.31"
         x2="-903.67999"
         y1="-1620.89"
         y2="-1645.2"
         gradientTransform="matrix(-0.17198087,0.2010864,0.2010864,0.17198087,324.07779,647.91104)"
         xlink:href="#b" />
      <linearGradient
         id="R"
         x1="-5311.4102"
         x2="-5386.6201"
         y1="676.41998"
         y2="673"
         gradientTransform="matrix(0.26458,0,0,0.26458,1565.991,0.574)"
         xlink:href="#f" />
      <linearGradient
         id="S"
         x1="-2637.45"
         x2="-2601.03"
         y1="610.12"
         y2="685"
         gradientTransform="matrix(0.25877,-0.05515,0.05515,0.25877,793.855,-143.724)"
         xlink:href="#b" />
      <linearGradient
         id="T"
         x1="28.809999"
         x2="37.34"
         y1="540.51001"
         y2="560.15002"
         gradientTransform="matrix(0.26458,0,0,0.26458,113.104,0.574)"
         xlink:href="#a" />
      <linearGradient
         id="U"
         x1="2360.8401"
         x2="2366.29"
         y1="1480.97"
         y2="1485.8199"
         gradientTransform="matrix(0.26197289,-0.03705105,0.03705105,0.26197289,-530.2322,-103.63328)"
         xlink:href="#c" />
      <linearGradient
         id="V"
         x1="1440.83"
         x2="1440.83"
         y1="1485.8101"
         y2="1476.3101"
         gradientTransform="matrix(0.26197289,-0.03705105,0.03705105,0.26197289,-287.82132,-137.90172)"
         xlink:href="#a" />
      <linearGradient
         id="W"
         x1="2361.3899"
         x2="2366.8401"
         y1="1480.35"
         y2="1485.2"
         gradientTransform="matrix(0.26197289,-0.03705105,0.03705105,0.26197289,-530.2322,-103.63328)"
         xlink:href="#c" />
      <linearGradient
         id="X"
         x1="2684"
         x2="2689.45"
         y1="745.09003"
         y2="749.94"
         gradientTransform="matrix(0.26458,0,0,0.26458,-577.216,0.574)"
         xlink:href="#c" />
      <linearGradient
         id="N"
         x1="-3082.0701"
         x2="-3085.6499"
         y1="635.52002"
         y2="716.21002"
         gradientTransform="matrix(-0.26458,0.01058,0.01058,0.26458,-668.153,35.97)"
         xlink:href="#f" />
      <clipPath
         id="F">
        <polygon
           points="117.77,420.84 272.56,421.69 272.56,560.26 117.77,566.69 "
           class="cls-1 color000 svgShape"
           fill="#000000"
           id="polygon89" />
      </clipPath>
      <clipPath
         id="w">
        <polygon
           points="264.23,515.17 365.08,512.54 365.08,615.36 264.23,621.62 "
           class="cls-1 color000 svgShape"
           fill="#000000"
           id="polygon92" />
      </clipPath>
      <clipPath
         id="n">
        <polygon
           points="261.16,353.41 384.37,356.92 384.37,479.14 261.16,480.92 "
           class="cls-1 color000 svgShape"
           fill="#000000"
           id="polygon95" />
      </clipPath>
    </defs>
  </defs>
  <g
     transform="matrix(3.7721645,0,0,3.7721645,-150.44789,-338.55584)"
     fill="#000000"
     class="color000 svgShape"
     id="g334">
    <path
       fill="#f4f7fa"
       style="isolation:isolate"
       d="m 129.341,115.48803 a 44.338875,44.338875 0 0 0 -3.01625,-4.35769 C 115.88958,97.790053 98.969473,91.551178 83.975539,91.101386 q -1.36525,-0.03969 -2.706687,-0.01588 c -12.805834,0.216958 -32.617834,4.905375 -38.32225,16.949204 -1.989667,4.20687 -1.852084,10.39283 -1.5875,22.75417 a 125.34371,125.34371 0 0 0 1.132416,15.51252 c 1.918229,13.65779 3.222625,22.95525 8.162396,28.36862 12.379855,13.56783 57.097086,13.17625 76.199996,-11.24744 10.41136,-13.31912 12.01473,-32.27122 2.48709,-47.93456 z m -61.796086,5.92931 c 1.119188,0 2.235729,-0.37306 3.354917,-0.74613 -1.119188,0.37307 -2.235729,0.74613 -3.354917,0.74613 z m 10.813521,-0.37306 c 0.743479,0 1.489604,0 2.235729,0.37306 -0.746125,-0.37306 -1.49225,-0.37306 -2.235729,-0.37306 z"
       class="cls-6 colorf4f7fa svgShape"
       id="path100" />
    <path
       fill="#d8dee8"
       style="isolation:isolate"
       d="m 89.624393,175.48759 c -4.103687,-0.74877 -5.119687,-9.54881 -5.249333,-10.81352 -0.322792,-3.13796 -0.722312,-7.02468 1.547813,-10.31875 3.278187,-4.7625 8.860895,-3.51631 10.194395,-7.46389 0.817563,-2.42623 -1.195916,-3.175 -1.291166,-7.81051 -0.02646,-1.32291 -0.127,-6.13833 3.235851,-10.02506 2.397127,-2.77019 5.442477,-3.78883 7.053797,-4.18571 a 15.480771,15.480771 0 0 0 1.12183,-5.79437 c -0.0212,-3.93965 -1.63248,-5.461 -0.79375,-7.54857 0.95779,-2.39447 4.37092,-3.64331 6.96912,-3.6195 6.9215,0.0635 10.71298,9.19428 10.97227,9.8425 0.67205,1.68011 2.79665,6.99559 0.36248,10.86644 -1.92087,3.05594 -5.18848,2.82046 -5.68589,5.334 -0.49742,2.51354 2.60879,3.48456 3.34169,7.31309 0.62706,3.2676 -0.75142,7.16492 -3.19353,9.36096 -4.07987,3.67241 -9.07256,0.74083 -11.25802,3.77825 -2.54,3.53483 2.58763,9.78958 0.32015,11.88773 -2.15371,2.00025 -7.784037,-2.68817 -10.525123,-0.3519 -1.981729,1.68804 -0.145521,5.07736 -2.817813,7.79198 -0.15875,0.1614 -2.164291,2.14577 -4.304771,1.75683 z"
       class="cls-7 colord8dee8 svgShape"
       id="path102" />
    <path
       fill="#f4f7fa"
       style="isolation:isolate;mix-blend-mode:soft-light"
       d="m 111.18529,109.98734 c 2.62996,0.6059 3.84439,8.52752 2.45533,15.30615 -0.95515,4.66989 -2.3204,4.7625 -5.82083,12.66031 -4.74927,10.71034 -2.9845,12.22375 -6.43732,15.96496 -4.749264,5.14085 -9.607014,3.95552 -12.215806,8.89529 -1.764771,3.34434 -1.254125,7.14375 -0.486833,9.92188 a 18.565812,18.565812 0 0 1 -2.923646,-8.04334 c -0.264583,-2.45268 -0.777875,-6.87916 1.772708,-9.58585 3.06123,-3.23585 7.56973,-0.86254 9.670521,-3.87085 1.190629,-1.70657 0.121709,-3.01361 -0.156104,-8.84238 -0.277812,-5.87905 -0.410104,-8.81857 1.177393,-11.32682 2.838977,-4.47675 7.937497,-2.64583 9.691687,-6.5352 1.80975,-4.02432 -2.78871,-7.95603 -0.39423,-12.0359 0.75671,-1.32556 2.36009,-2.80723 3.66713,-2.50825 z"
       class="cls-352 colorf4f7fa svgShape"
       opacity="0.5"
       id="path104" />
    <path
       fill="url(#h)"
       style="isolation:isolate;fill:url(#h)"
       d="m 109.79887,151.27822 c -3.59304,-5.207 -9.70756,-3.84969 -11.168057,-8.17563 -0.89694,-2.65906 1.32291,-3.47398 1.415517,-8.55663 0.0291,-1.45785 0.13758,-6.7257 -3.545416,-10.9802 -2.624666,-3.03477 -5.963708,-4.15396 -7.728479,-4.58523 a 17.010062,17.010062 0 0 1 -1.227667,-6.35 c 0.02381,-4.31536 1.788584,-5.97959 0.873125,-8.26823 -1.058333,-2.62202 -4.788958,-3.99256 -7.635875,-3.96875 -7.580312,0.0714 -11.73427,10.07269 -12.017375,10.78441 -0.642937,1.60603 -2.502958,6.2574 -1.182687,10.23409 1.105958,0 2.211917,-0.37306 3.317875,-0.74348 -1.105958,0.37042 -2.211917,0.73554 -3.317875,0.74348 a 7.5803125,7.5803125 0 0 0 0.79375,1.66687 c 2.116667,3.34963 5.68325,3.09298 6.230937,5.84465 0.547688,2.75167 -2.8575,3.81794 -3.661833,8.01158 -0.687917,3.57981 0.822854,7.85019 3.497792,10.25261 4.466166,4.01638 9.935104,0.80963 12.326937,4.13544 2.783417,3.87614 -2.833687,10.71562 -0.34925,13.02544 2.360084,2.19075 8.524875,-2.94746 11.530544,-0.3863 2.169577,1.85209 0.1561,5.55625 3.085037,8.53546 0.17463,0.17727 2.38125,2.3495 4.72017,1.92352 4.49791,-0.82021 5.60652,-10.47221 5.74675,-11.84539 0.34396,-3.43429 0.78052,-7.69409 -1.70392,-11.29771 z M 78.358435,121.04428 c 0.743479,0 1.489604,0 2.235729,0.37306 -0.746125,-0.37306 -1.49225,-0.37306 -2.235729,-0.37306 z"
       class="cls-353"
       id="path106" />
    <path
       fill="#f4f7fa"
       style="isolation:isolate;mix-blend-mode:soft-light"
       d="m 82.134039,102.67426 c -2.881312,0.66411 -4.212166,9.33979 -2.690812,16.76664 1.058333,5.1144 2.542646,5.20965 6.379104,13.86681 5.201708,11.73428 3.27025,13.39057 7.051146,17.49161 5.191126,5.62504 10.514543,4.33123 13.372043,9.74461 1.93145,3.66183 1.37318,7.81579 0.52916,10.86643 a 20.349104,20.349104 0 0 0 3.20146,-8.81327 c 0.30427,-2.68552 0.85196,-7.54062 -1.94204,-10.49602 -3.35492,-3.54806 -8.292037,-0.94456 -10.583332,-4.23333 -1.304395,-1.8706 -0.132291,-3.29935 0.169334,-9.6864 0.304271,-6.43996 0.457731,-9.65994 -1.285875,-12.40896 -3.108854,-4.90008 -8.702146,-2.91042 -10.615084,-7.14375 -1.984375,-4.4106 3.053292,-8.71802 0.431271,-13.18683 -0.849312,-1.4605 -2.595562,-3.09562 -4.016375,-2.76754 z"
       class="cls-352 colorf4f7fa svgShape"
       opacity="0.5"
       id="path108" />
    <path
       fill="url(#i)"
       style="isolation:isolate;fill:url(#i)"
       d="m 87.700873,175.99295 c -2.455334,-0.42069 -3.812646,-6.46906 -3.286125,-11.16277 0.203729,-1.81504 0.404812,-3.6195 1.727729,-5.26521 2.227791,-2.77813 4.804833,-1.56104 6.765396,-3.79942 2.894541,-3.30729 -0.706438,-8.26029 2.079625,-10.94846 2.05052,-1.97908 4.648725,0.0767 7.093472,-2.06639 2.83898,-2.48709 1.11125,-6.7998 3.55071,-7.89782 1.41817,-0.63764 2.38125,0.65088 6.21507,0.37836 1.50283,-0.10584 2.25425,-0.15875 2.94216,-0.5715 2.41036,-1.45257 1.24354,-4.73869 3.175,-6.75217 2.11667,-2.21721 6.71777,-1.56104 9.45092,-0.33867 4.90008,2.1934 7.10406,7.68615 7.17814,12.05442 0.0159,0.93662 0.0238,7.03263 -4.34445,10.2579 -3.175,2.34685 -7.45067,2.27806 -8.14388,2.26483 -2.69875,-0.0423 -3.2385,-0.82814 -4.19629,-0.26458 -2.77019,1.63777 1.09273,8.56985 -2.44475,12.99104 -1.44727,1.8071 -3.9079,2.91042 -6.08542,3.02154 -3.53218,0.1614 -5.05089,-2.38125 -6.92679,-1.51341 -2.42887,1.13241 -0.96044,5.9055 -3.622137,7.31308 -1.881193,0.99483 -3.328464,-1.01865 -6.500818,-0.17992 -2.82575,0.75406 -3.175,2.74373 -4.627562,2.47915 z"
       class="cls-354"
       id="path110" />
    <path
       fill="#f4f7fa"
       style="isolation:isolate;mix-blend-mode:soft-light"
       d="m 87.838456,171.57176 c 1.119187,0.27781 1.717146,-2.7649 5.540375,-6.75746 4.172479,-4.36033 6.416142,-3.82058 10.302869,-7.74435 4.43707,-4.4794 2.38125,-6.06954 6.10659,-9.53823 5.02708,-4.699 9.31862,-2.26748 15.37758,-7.77082 1.81769,-1.651 4.23333,-3.91054 3.8444,-6.68602 -0.34132,-2.40506 -2.75432,-4.88156 -5.48746,-4.88685 -0.11642,0 -2.41565,0.0318 -3.88144,1.79916 -1.80181,2.16694 -0.26458,4.42119 -1.92352,6.0669 -0.87313,0.86254 -2.23573,0.96044 -4.96358,1.16152 -3.92377,0.28575 -4.5773,-0.5424 -5.64886,0.17463 -2.42623,1.61925 0,6.46377 -2.46327,8.46667 -2.11667,1.72508 -5.156727,-0.82021 -7.008809,0.83343 -2.235729,1.99496 1.246192,6.55109 -1.058333,9.88484 -1.98173,2.86808 -5.691188,1.12183 -8.36348,4.11956 -3.153833,3.54542 -1.989666,10.4775 -0.373062,10.87702 z"
       class="cls-352 colorf4f7fa svgShape"
       opacity="0.5"
       id="path112" />
    <path
       fill="url(#j)"
       style="isolation:isolate;fill:url(#j)"
       d="m 102.04129,173.47941 c 1.86531,0.13229 2.11666,-3.29407 5.37368,-4.32065 3.60098,-1.13506 5.88698,2.23838 8.39523,0.94985 2.82046,-1.44727 1.23296,-6.37645 4.40002,-8.22589 2.16165,-1.26206 3.66713,0.59002 6.38705,-0.56886 2.83633,-1.20914 5.60387,-5.09852 4.51643,-8.91381 -0.90752,-3.175 -4.18306,-5.20171 -6.81831,-5.22023 -2.15635,-0.0159 -2.77019,1.32292 -4.65667,0.92075 -2.3495,-0.48683 -2.29393,-2.73843 -4.7625,-3.75179 -2.46856,-1.01335 -5.79702,-0.13494 -7.64116,1.86531 -1.53194,1.66423 -1.68804,3.74386 -1.82563,5.55625 -0.36512,4.87098 1.85209,6.74688 0.6694,8.62013 -1.48167,2.33362 -5.54038,0.35454 -7.389807,2.66964 -2.307171,2.90248 0.66939,10.23409 3.352267,10.4193 z"
       class="cls-355"
       id="path114" />
    <path
       fill="#f4f7fa"
       style="isolation:isolate;mix-blend-mode:soft-light"
       d="m 101.13112,169.90753 c 0.68263,0.13494 0.88371,-2.08492 3.02683,-3.937 2.46063,-2.11667 4.31007,-1.03452 7.06173,-2.71462 3.40784,-2.07698 2.11667,-4.69371 5.14879,-6.80244 4.25186,-2.95804 9.53823,0.26458 10.96698,-2.13519 0.83344,-1.41023 -0.10318,-3.96875 -1.60866,-4.82071 -1.60602,-0.89693 -2.74373,0.79375 -5.50069,0.40217 -2.58233,-0.37835 -2.72785,-2.03465 -5.91608,-2.86808 -1.55311,-0.40482 -3.59305,-0.93927 -4.89744,0.0609 -2.55588,1.95791 -1.16946,8.9482 -0.74613,11.08075 0.39159,1.9632 0.75142,2.7252 0.24077,3.52425 -1.33879,2.0955 -5.7785,-0.0662 -7.83166,2.19339 -1.711857,1.88119 -0.82021,5.83142 0.0556,6.01663 z"
       class="cls-352 colorf4f7fa svgShape"
       opacity="0.5"
       id="path116" />
    <path
       fill="#ff0000"
       style="isolation:isolate"
       d="m 135.26237,173.87628 -91.339456,-0.76994 v 2.30452 a 1.2276667,1.2276667 0 0 0 0.939271,1.25148 l 25.825979,4.53496 a 3.6221458,3.6221458 0 0 0 0.926042,0.0423 l 62.648044,-5.16996 a 1.1721042,1.1721042 0 0 0 0.99218,-1.22237 z"
       class="cls-333 color26264f svgShape"
       id="path118" />
    <path
       fill="#ff0000"
       style="isolation:isolate"
       d="m 102.11008,170.19328 -57.242603,4.21217 a 1.7356667,1.7356667 0 0 1 -1.852084,-1.79123 v -42.62173 a 1.8944167,1.8944167 0 0 1 1.852084,-1.92882 h 57.242603 c 0.84402,0 1.52664,0.78052 1.52664,1.74361 v 38.53392 c 0,0.96044 -0.68262,1.79123 -1.52664,1.85208 z"
       class="cls-333 color26264f svgShape"
       id="path120" />
    <path
       fill="url(#k)"
       style="isolation:isolate;fill:url(#k)"
       d="m 103.02289,170.19328 -57.242601,4.21217 a 1.7356667,1.7356667 0 0 1 -1.852083,-1.79123 v -42.62173 a 1.8944167,1.8944167 0 0 1 1.852083,-1.92882 h 57.242601 c 0.84402,0 1.52665,0.78052 1.52665,1.74361 v 38.53392 c 0,0.96044 -0.68263,1.79123 -1.52665,1.85208 z"
       class="cls-356"
       id="path122" />
    <path
       fill="#00141e"
       style="isolation:isolate"
       d="m 101.2396,167.47601 -53.31354,3.66183 a 1.4234583,1.4234583 0 0 1 -1.510771,-1.46843 v -37.30626 a 1.5504583,1.5504583 0 0 1 1.510771,-1.5875 l 53.31354,-0.23019 c 0.69585,0 1.25942,0.635 1.25942,1.42611 v 33.98573 c 0,0.79111 -0.57415,1.47109 -1.25942,1.51871 z"
       class="cls-357 color00141e svgShape"
       id="path124" />
    <path
       fill="#ffffff"
       style="isolation:isolate"
       d="m 76.424331,129.23049 a 0.66145833,0.66145833 0 1 1 -0.658813,-0.71703 0.69320833,0.69320833 0 0 1 0.658813,0.71703 z"
       class="cls-14 colorfff svgShape"
       id="path126" />
    <path
       fill="#ffffff"
       style="isolation:isolate;mix-blend-mode:soft-light"
       d="m 45.780289,174.40545 56.954211,-4.19365 0.28839,-0.0212 a 1.5292917,1.5292917 0 0 0 1.00806,-0.51064 c -4.098387,-0.22225 -6.643682,-1.67746 -8.284098,-3.175 -3.299354,-3.0189 -2.727854,-5.99546 -6.283854,-7.97984 -4.434417,-2.47385 -7.921625,0.66146 -11.287125,-2.43152 -2.042584,-1.87589 -1.039813,-3.27554 -3.550709,-6.08542 -2.780771,-3.1062 -4.590521,-2.0611 -7.387166,-4.85775 -3.532188,-3.53218 -1.764771,-6.28121 -4.810125,-8.81856 -3.690938,-3.07711 -7.672917,-0.23019 -11.189229,-3.175 -1.516063,-1.27264 -2.349501,-3.12473 -2.783417,-5.09323 h -2.674938 a 1.8944167,1.8944167 0 0 0 -1.852083,1.92882 v 42.62437 a 1.7383125,1.7383125 0 0 0 1.852083,1.78859 z"
       class="cls-358 colorfff svgShape"
       opacity="0.48"
       id="path128" />
    <path
       fill="url(#l)"
       style="isolation:isolate;fill:url(#l)"
       d="m 105.30625,169.96045 -61.383336,4.445 26.76525,4.70164 a 3.6221458,3.6221458 0 0 0 0.926042,0.0423 l 63.648164,-5.27311 -28.97187,-3.89467 a 4.8233542,4.8233542 0 0 0 -0.98425,-0.0212 z"
       class="cls-359"
       id="path130" />
    <polygon
       fill="#ff0000"
       style="isolation:isolate"
       points="175.07,666.05 113.64,657.11 306.77,642.94 366.55,650.91 "
       class="cls-333 color26264f svgShape"
       transform="matrix(0.26458,0,0,0.26458,22.814,0.574)"
       id="polygon132" />
    <path
       fill="#ffffff"
       style="isolation:isolate"
       d="m 128.80654,99.303469 v 27.873851 c 0,1.28587 -0.87577,2.3495 -1.97644,2.38125 l -9.16252,0.22489 -28.260145,0.69057 a 2.38125,2.38125 0 0 1 -2.346854,-2.13784 c 0,-0.0952 -0.137583,-0.1905 -0.137583,-0.28575 V 98.345678 a 2.7199167,2.7199167 0 0 1 0.489479,-1.346729 c 0,0 0.07408,-0.01852 0.08202,-0.0291 a 2.1669375,2.1669375 0 0 1 1.886479,-1.039813 l 4.28625,0.113771 33.157584,0.878417 c 1.09802,0.0291 1.98173,1.095375 1.98173,2.38125 z"
       class="cls-14 colorfff svgShape"
       id="path134" />
    <path
       fill="url(#m)"
       style="isolation:isolate;fill:url(#m)"
       d="m 89.410081,129.69086 c -0.838729,0.0185 -1.524,-0.72231 -1.524,-1.651 V 98.366844 c 0,-0.928687 0.685271,-1.66952 1.524,-1.648354 l 37.435889,0.957792 c 0.74613,0.01852 1.35467,0.746125 1.35467,1.621896 v 27.892372 c 0,0.87577 -0.60854,1.60073 -1.35467,1.6166 z"
       class="cls-360"
       id="path136" />
    <path
       fill="#d8dee8"
       style="isolation:isolate"
       d="M 126.84597,96.924865 89.410081,95.930032 c -1.235604,-0.03175 -2.241021,1.058333 -2.241021,2.420937 v 1.778001 l 41.66394,0.84402 v -1.669521 c 0,-1.285875 -0.889,-2.3495 -1.98703,-2.378604 z"
       class="cls-7 colord8dee8 svgShape"
       id="path138" />
    <path
       fill="#ffffff"
       style="isolation:isolate"
       d="m 91.158977,98.134011 a 0.714375,0.714375 0 0 1 -0.73025,0.722313 0.7540625,0.7540625 0 0 1 -0.73025,-0.756709 0.71702083,0.71702083 0 0 1 0.73025,-0.722312 0.75935417,0.75935417 0 0 1 0.73025,0.756708 z m 2.545291,0.07144 a 0.714375,0.714375 0 0 1 -0.724958,0.719666 0.75141667,0.75141667 0 0 1 -0.722312,-0.754062 0.70908333,0.70908333 0 0 1 0.722312,-0.719667 0.7540625,0.7540625 0 0 1 0.724958,0.754063 z m 2.524125,0.04762 a 0.7064375,0.7064375 0 0 1 -0.71702,0.71702 0.74347917,0.74347917 0 0 1 -0.717021,-0.751416 0.7064375,0.7064375 0 0 1 0.717021,-0.717021 0.74877083,0.74877083 0 0 1 0.71702,0.751417 z"
       class="cls-14 colorfff svgShape"
       id="path140" />
    <polygon
       fill="#d8dee8"
       style="isolation:isolate"
       points="391.93,395.22 391.93,478.73 253.11,481.61 253.11,393.32 "
       class="cls-7 colord8dee8 svgShape"
       transform="matrix(0.26458,0,0,0.26458,22.814,0.574)"
       id="polygon142" />
    <g
       style="isolation:isolate"
       class="cls-361 color000 svgShape"
       opacity="0.5"
       transform="matrix(0.26458,0,0,0.26458,22.814,0.574)"
       fill="#000000"
       id="g148">
      <polygon
         points="327.34,390.09 327.34,385.46 253.11,384.18 253.11,388.95 "
         class="cls-14 color000 svgShape"
         fill="#000000"
         id="polygon144" />
      <polygon
         points="391.93,386.57 383.92,386.43 383.92,390.96 391.93,391.08 "
         class="cls-14 color000 svgShape"
         fill="#000000"
         id="polygon146" />
    </g>
    <g
       style="isolation:isolate;mix-blend-mode:soft-light"
       class="cls-362 color000 svgShape"
       opacity="0.5"
       transform="matrix(0.26458,0,0,0.26458,22.814,0.574)"
       fill="#000000"
       id="g152">
      <path
         d="m 359.41,488.33 -106.83,2.61 a 9,9 0 0 1 -8.9,-8.08 c 0,-0.11 -0.5,-0.21 -0.5,-0.31 V 369.48 a 10.34,10.34 0 0 1 1.83,-5 c 0,0 0.29,-0.08 0.31,-0.11 a 8.21,8.21 0 0 1 7.19,-4.05 l 16.12,0.43 c 0,0 0.05,0.08 0.06,0.12 0.3,1 0.65,2 1,3 a 64.91,64.91 0 0 0 5.9,12.35 l 0.48,0.75 a 53.33,53.33 0 0 0 6,7.74 49,49 0 0 0 5.18,4.8 53.51,53.51 0 0 0 6.39,4.4 c 15.68,9.31 33.3,10.53 45,29.18 10,16 2.85,24.39 12.53,48.85 1.05,2.66 2.19,5.2 3.39,7.63 1,2.08 2.08,4.07 3.19,6 0.52,0.9 1.09,1.84 1.66,2.76 z"
         class="cls-14 color000 svgShape"
         fill="#000000"
         id="path150" />
    </g>
    <g
       style="isolation:isolate"
       class="cls-363 color000 svgShape"
       clip-path="url(#n)"
       transform="matrix(0.26458,0,0,0.26458,22.814,0.574)"
       fill="#000000"
       id="g168">
      <path
         fill="url(#o)"
         d="m 302.88,477.88 c -24.1,-3.72 -29.47,-6.46 -32,-11.57 -3.62,-7.44 -1,-19.55 5.2,-27 5.41,-6.51 12.13,-7.78 11.93,-12.28 -0.16,-3.71 -4.76,-4.2 -8.15,-11.2 -1,-2.05 -2.92,-6 -2.08,-10.78 1.23,-7 7.47,-10.54 8,-10.82 6.5,-3.59 10.2,0.7 15.07,-2.52 6.08,-4 3.33,-12.73 9,-15.13 4.13,-1.73 9.39,1.26 10.76,2 4.57,2.6 4.09,5.13 7.94,6.75 4.5,1.9 6.65,-0.95 11.86,0.3 4.3,1 7.4,4.19 9.93,7.37 5.67,7.12 2.86,11.27 7,20 5.87,12.25 14.7,10.89 16.26,20.65 0.82,5.1 -1.28,7.42 0.33,15.23 1.09,5.28 2.45,6.22 2.7,9.32 0.69,8.91 -9.38,16.85 -11.27,18.25 -11.98,8.98 -28.78,6.62 -62.48,1.43 z"
         class="cls-364"
         id="path154"
         style="fill:url(#o)" />
      <path
         fill="url(#p)"
         d="m 341.21,453.74 c -15.78,-1.11 -26.52,13.95 -30.8,10.26 -4.06,-3.51 7.39,-15.51 3.49,-29.45 -3.84,-13.72 -19,-16.67 -17.78,-24.42 1.36,-8.76 21.59,-10.77 21.12,-17.21 -0.28,-3.8 -7.41,-4.72 -8.84,-10.78 a 9.63,9.63 0 0 1 0.15,-4.78 c -3.94,3.13 -2.15,10.67 -7.69,14.34 -4.87,3.22 -8.57,-1.07 -15.07,2.52 -0.5,0.28 -6.74,3.86 -8,10.82 -0.84,4.76 1.09,8.73 2.08,10.78 3.39,7 8,7.49 8.15,11.2 0.2,4.5 -6.52,5.77 -11.93,12.28 -6.18,7.46 -8.82,19.57 -5.2,27 2.49,5.11 7.86,7.85 32,11.57 33.7,5.19 50.5,7.55 62.55,-1.4 4.65,-3.45 10.12,-9.31 11.29,-14.48 a 13.69,13.69 0 0 1 -6.78,3.74 c -10.02,1.97 -14.66,-11.01 -28.74,-11.99 z"
         class="cls-365"
         id="path156"
         style="fill:url(#p)" />
      <path
         fill="url(#q)"
         d="m 276,510.39 c -3.66,-9.16 -1.43,-23.63 -1,-26.68 a 58.74,58.74 0 0 1 7.71,-21.87 c 10.72,-17.9 26.94,-17.77 39.11,-17.67 6,0.05 12.2,-0.09 19.75,2.7 a 51.9,51.9 0 0 1 11,5.88 c 15,10.95 26.79,46.77 14.74,60.52 -7.7,8.79 -15.62,-2.14 -50.21,3.72 -14,2.37 -28.81,6.24 -37.64,-1.41 A 13.09,13.09 0 0 1 276,510.39 Z"
         class="cls-366"
         id="path158"
         style="fill:url(#q)" />
      <path
         fill="url(#r)"
         d="m 315.48,422.71 c 0,0 2.57,19.18 -10.47,23 a 2.13,2.13 0 0 0 -0.83,3.55 l 16.07,15.61 a 2.3,2.3 0 0 0 3.38,-0.17 L 338,448 a 2.12,2.12 0 0 0 -0.79,-3.34 c -4.6,-1.77 -12.88,-6.94 -11.14,-20.94 z"
         class="cls-367"
         id="path160"
         style="fill:url(#r)" />
      <path
         fill="url(#s)"
         d="m 307.49,412 c 0,0.21 3.52,19 12.52,19 8.46,0 11.67,-13.68 12.71,-20.08 l 0.33,-3.26 a 6.15,6.15 0 0 1 -3.7,0.07 5.91,5.91 0 0 1 -3.75,-3 c -1,-2.37 0.85,-4.22 -0.21,-6.3 a 4.55,4.55 0 0 0 -2.81,-2.08 c 0.63,1 1.86,3.16 1.17,5.11 -0.47,1.32 -1.78,2.57 -4.69,3.31 -8.37,2.15 -11.65,2.96 -11.57,7.23 z"
         class="cls-368"
         id="path162"
         style="fill:url(#s)" />
      <path
         fill="url(#t)"
         d="m 309.7,414.25 c 0,0 -4.66,-4.14 -5.06,-1.63 -0.85,5.22 3.14,8.14 5.3,6.59 2.16,-1.55 -0.24,-4.96 -0.24,-4.96 z"
         class="cls-369"
         id="path164"
         style="fill:url(#t)" />
      <path
         fill="url(#u)"
         d="m 330.07,414.41 c 0,0 4.58,-4 5,-1.53 0.83,5.18 -3.08,8 -5.21,6.45 -2.13,-1.55 0.21,-4.92 0.21,-4.92 z"
         class="cls-370"
         id="path166"
         style="fill:url(#u)" />
    </g>
    <path
       fill="#ffffff"
       style="isolation:isolate"
       d="m 103.90395,125.16119 a 1.3070417,1.3070417 0 0 1 -1.2647,1.32292 1.2752917,1.2752917 0 0 1 -1.27,-1.30175 1.3229167,1.3229167 0 0 1 1.27,-1.32292 1.2752917,1.2752917 0 0 1 1.2647,1.30175 z m 5.88169,-0.0661 a 1.2964583,1.2964583 0 0 1 -1.24619,1.32291 1.2620625,1.2620625 0 0 1 -1.25148,-1.29116 1.2964583,1.2964583 0 0 1 1.25148,-1.32292 1.2620625,1.2620625 0 0 1 1.24619,1.29117 z m 5.79173,-0.0662 a 1.2805833,1.2805833 0 0 1 -1.22767,1.30969 1.2435417,1.2435417 0 0 1 -1.23031,-1.28058 1.2779375,1.2779375 0 0 1 1.23031,-1.30969 1.2435417,1.2435417 0 0 1 1.22767,1.28058 z m 7.42685,15.16063 v 22.92615 c 0,1.05833 -0.71702,1.97114 -1.62983,2.03464 l -7.55914,0.5424 v 0 l -23.143107,1.65364 a 1.6483542,1.6483542 0 0 1 -0.4445,-0.0265 l -0.07938,-0.0185 -0.150812,-0.045 c -0.05027,-0.0185 -0.0979,-0.0397 -0.148167,-0.0635 a 1.5875,1.5875 0 0 1 -0.206375,-0.11641 1.5663333,1.5663333 0 0 1 -0.127,-0.0926 1.5875,1.5875 0 0 1 -0.121708,-0.10584 1.9235208,1.9235208 0 0 1 -0.566208,-1.19062 2.2489583,2.2489583 0 0 1 -0.03969,-0.23283 V 141.1923 c 0,-0.0265 0,-0.0503 0,-0.0741 a 2.286,2.286 0 0 1 0.322799,-0.96309 c 0,0 0.02381,-0.0185 0.03175,-0.0265 a 1.8917708,1.8917708 0 0 1 1.164166,-0.88106 l 0.17198,-0.0344 c 0.06085,0 0.119062,0 0.179916,0 l 3.481917,-0.0926 v 0 l 7.516809,-0.22225 19.71675,-0.56621 h 0.13229 0.0714 c 0.81227,0.09 1.42611,0.88371 1.42611,1.85738 z"
       class="cls-14 colorfff svgShape"
       id="path170" />
    <path
       fill="url(#v)"
       style="isolation:isolate;fill:url(#v)"
       d="m 90.664206,166.70343 c -0.685271,0.0503 -1.240896,-0.52917 -1.240896,-1.28588 v -24.1644 a 1.3573125,1.3573125 0 0 1 1.240896,-1.41023 l 30.728704,-0.90752 c 0.61913,-0.0159 1.12448,0.55298 1.12448,1.27265 v 22.94996 c 0,0.71702 -0.50535,1.33879 -1.12448,1.38377 z"
       class="cls-371"
       id="path172" />
    <path
       fill="#d8dee8"
       style="isolation:isolate"
       d="m 121.39291,138.32421 -30.728704,0.87578 c -1.005417,0.0265 -1.822979,0.95514 -1.822979,2.07168 v 1.44728 l 34.200043,-1.15359 v -1.37319 c 0,-1.05833 -0.74348,-1.89441 -1.64836,-1.86796 z"
       class="cls-7 colord8dee8 svgShape"
       id="path174" />
    <path
       fill="#ffffff"
       style="isolation:isolate"
       d="m 92.085018,140.91713 a 0.62177083,0.62177083 0 0 1 -0.592666,0.62177 0.57679167,0.57679167 0 0 1 -0.595313,-0.58473 0.62177083,0.62177083 0 0 1 0.595313,-0.62177 0.5794375,0.5794375 0 0 1 0.592666,0.58473 z m 2.074334,-0.0635 a 0.619125,0.619125 0 0 1 -0.590021,0.61913 0.57414583,0.57414583 0 0 1 -0.590021,-0.58209 0.61647917,0.61647917 0 0 1 0.590021,-0.61912 0.5715,0.5715 0 0 1 0.590021,0.58208 z m 2.061104,-0.0661 a 0.61647917,0.61647917 0 0 1 -0.584729,0.61912 0.5715,0.5715 0 0 1 -0.587375,-0.58208 0.61383333,0.61383333 0 0 1 0.587375,-0.61648 0.5715,0.5715 0 0 1 0.584729,0.57944 z"
       class="cls-14 colorfff svgShape"
       id="path176" />
    <polygon
       fill="#d8dee8"
       style="isolation:isolate"
       points="371.54,546.23 371.54,614.88 257.58,622.67 257.58,550.7 "
       class="cls-7 colord8dee8 svgShape"
       transform="matrix(0.26458,0,0,0.26458,22.814,0.574)"
       id="polygon178" />
    <g
       style="isolation:isolate"
       class="cls-361 color000 svgShape"
       opacity="0.5"
       transform="matrix(0.26458,0,0,0.26458,22.814,0.574)"
       fill="#000000"
       id="g184">
      <polygon
         points="318.27,544.84 318.27,541.05 257.58,543.25 257.58,547.14 "
         class="cls-14 color000 svgShape"
         fill="#000000"
         id="polygon180" />
      <polygon
         points="371.54,539.12 364.91,539.36 364.91,543.08 371.54,542.82 "
         class="cls-14 color000 svgShape"
         fill="#000000"
         id="polygon182" />
    </g>
    <g
       style="isolation:isolate;mix-blend-mode:soft-light"
       class="cls-362 color000 svgShape"
       opacity="0.5"
       transform="matrix(0.26458,0,0,0.26458,22.814,0.574)"
       fill="#000000"
       id="g188">
      <path
         d="m 343.94,624.08 -87.5,6.24 a 6.23,6.23 0 0 1 -1.68,-0.1 l -0.3,-0.07 -0.57,-0.17 c -0.19,-0.07 -0.37,-0.15 -0.56,-0.24 a 6,6 0 0 1 -0.78,-0.44 5.92,5.92 0 0 1 -0.48,-0.35 6,6 0 0 1 -0.46,-0.4 7.23,7.23 0 0 1 -2.15,-4.5 c 0,-0.08 -0.14,-0.17 -0.14,-0.25 v -92.33 c 0,-0.1 0,-0.19 0,-0.28 a 8.76,8.76 0 0 1 1.2,-3.64 c 0,0 0.11,-0.07 0.12,-0.1 a 7.05,7.05 0 0 1 5.78,-3.61 l 13.05,-0.37 a 0.27,0.27 0 0 1 0,0.09 v 0 a 14.85,14.85 0 0 1 0.85,2.39 49.85,49.85 0 0 0 4.84,9.82 c 0.12,0.2 0.27,0.4 0.4,0.59 a 39.75,39.75 0 0 0 4.89,6.06 35.92,35.92 0 0 0 4.23,3.69 39.1,39.1 0 0 0 5.22,3.32 v 0 A 68.63,68.63 0 0 0 298,553 c 10.51,4 21.2,6.6 28.83,18.35 7.28,11.2 3.52,18.11 8.05,33.12 0.47,1.57 1,3.24 1.71,5 l 0.55,1.41 c 0.87,2.14 1.8,4.17 2.79,6.12 q 1.26,2.49 2.63,4.79 c 0.46,0.76 0.92,1.51 1.39,2.24 z"
         class="cls-14 color000 svgShape"
         fill="#000000"
         id="path186" />
    </g>
    <g
       style="isolation:isolate"
       class="cls-372 color000 svgShape"
       clip-path="url(#w)"
       transform="matrix(0.26458,0,0,0.26458,22.814,0.574)"
       fill="#000000"
       id="g208">
      <path
         fill="url(#x)"
         d="m 272.15,643 c -3.51,-9.16 1.45,-24.88 4.56,-32 9.05,-20.78 25.52,-22.31 38.89,-23.56 13,-1.21 25.47,-2.37 34.51,12.36 5.88,9.57 11.27,27.39 7.68,37.29 -3.79,10.41 -14.35,3.26 -39.79,4.91 -28.48,1.84 -41.47,12.41 -45.85,1 z"
         class="cls-373"
         id="path190"
         style="fill:url(#x)" />
      <path
         fill="url(#y)"
         d="m 327.89,588.87 c 0,2.51 -5.87,5.85 -13.15,6.24 -7.28,0.39 -13.26,-2.33 -13.26,-4.86 0,-2.53 5.95,-1.71 13.26,-2.09 7.31,-0.38 13.15,-1.8 13.15,0.71 z"
         class="cls-374"
         id="path192"
         style="fill:url(#y)" />
      <path
         fill="url(#z)"
         d="m 309.88,572.17 c -2,0.09 2.63,14.6 -4.7,17 a 0.86,0.86 0 0 0 -0.18,1.56 c 2,1 5.66,2.22 11.68,1.9 a 15.1,15.1 0 0 0 8.22,-3 0.85,0.85 0 0 0 -0.08,-1.43 c -2.24,-1.09 -5.35,-4.77 -4.42,-16.13 z"
         class="cls-375"
         id="path194"
         style="fill:url(#z)" />
      <path
         fill="url(#A)"
         d="m 303.75,554.75 c 0,0.19 0.64,13.64 3.6,20.22 0.85,1.89 5,1.46 7.77,1.1 2.35,-0.31 6,0.41 7.06,-1.33 4.16,-7 3.46,-23.77 3.46,-23.77 0,0 -2.13,-5.52 -10.89,-5 -8.76,0.52 -11,8.78 -11,8.78 z"
         class="cls-376"
         id="path196"
         style="fill:url(#A)" />
      <path
         fill="url(#B)"
         d="m 305.82,561.9 c 0,0 -1.85,-2.15 -3.6,-2.38 -1.75,-0.23 -2.89,4.52 -0.5,7.48 2.39,2.96 5.13,0.29 5.13,0.29 z"
         class="cls-377"
         id="path198"
         style="fill:url(#B)" />
      <path
         fill="url(#C)"
         d="m 323.72,561.14 c 0,0 1.83,-2.29 3.54,-2.66 1.71,-0.37 2.84,4.24 0.5,7.37 a 3.32,3.32 0 0 1 -5.06,0.74 z"
         class="cls-378"
         id="path200"
         style="fill:url(#C)" />
      <path
         fill="url(#D)"
         d="m 304.37,561.8 c 0.23,0.43 0.5,0.83 0.68,0.78 0.75,-0.24 -2.14,-7.69 0.52,-10.45 1.37,-1.42 2.91,-0.23 8.51,-0.71 5.6,-0.48 7.06,-1.94 8.75,-0.94 1.69,1 2.92,3.65 1.78,11.95 l 0.95,-0.27 a 9,9 0 0 1 0.57,-5.51 6.46,6.46 0 0 0 1,-3.29 c 0,-0.91 -0.32,-0.93 -0.37,-1.67 -0.14,-2.17 2.23,-2.85 2.34,-5 0.09,-1.65 -1.27,-2 -1,-3.71 0.21,-1.48 1.27,-1.79 1.11,-2.84 -0.16,-1.05 -1.61,-1.94 -2.61,-2.2 -1,-0.26 -1.39,0.08 -2,-0.33 -1,-0.67 -0.5,-1.92 -1.2,-2.36 -1.24,-0.78 -3.73,2.58 -5.33,1.82 -1,-0.46 -0.6,-2 -1.46,-2.28 -1.67,-0.64 -4.62,4.34 -5.81,3.73 -0.57,-0.29 0,-1.5 -0.82,-2.34 a 3.21,3.21 0 0 0 -4.22,0.2 c -1,1 -0.14,2.23 -1.16,3.56 -0.91,1.18 -2,0.75 -3,1.71 -1.76,1.64 -1.15,5.18 -0.93,6.44 0.75,4.35 3.09,5.15 2.56,8.15 a 7.15,7.15 0 0 0 -0.22,2.87 5.69,5.69 0 0 0 1.36,2.69 z"
         class="cls-379"
         id="path202"
         style="fill:url(#D)" />
      <g
         class="cls-348 color000 svgShape"
         fill="#000000"
         id="g206">
        <path
           fill="url(#E)"
           d="m 325.74,551.51 c -0.2,-2.12 1.38,-3.18 1.11,-4.69 a 3.41,3.41 0 0 0 -2.77,-2.45 c -2.66,-0.41 -4.38,3.74 -7,3.4 -2.05,-0.26 -1.82,-2.86 -4.14,-3.81 -3.68,-1.52 -7.55,3.66 -10,2.35 -0.74,-0.39 -1.49,-1.44 -1.54,-4.37 -1.42,1.74 -0.86,5 -0.66,6.15 0.75,4.35 3.09,5.15 2.56,8.15 a 7.15,7.15 0 0 0 -0.22,2.87 5.69,5.69 0 0 0 1.33,2.69 c 0.23,0.43 0.5,0.83 0.68,0.78 0.75,-0.24 -2.14,-7.69 0.52,-10.45 1.37,-1.42 2.91,-0.23 8.51,-0.71 5.6,-0.48 7.06,-1.94 8.75,-0.94 1.69,1 2.92,3.65 1.78,11.95 l 0.95,-0.27 a 9,9 0 0 1 0.57,-5.51 c 0.16,-0.33 0.38,-0.7 0.57,-1.12 a 10.21,10.21 0 0 0 -0.4,-2.3 9,9 0 0 1 -0.6,-1.72 z"
           class="cls-380"
           id="path204"
           style="fill:url(#E)" />
      </g>
    </g>
    <path
       fill="#ffffff"
       style="isolation:isolate"
       d="m 102.35614,161.98591 a 1.1377083,1.1377083 0 0 1 -1.03717,1.1377 0.98689583,0.98689583 0 0 1 -1.03981,-1.01335 1.1350625,1.1350625 0 0 1 1.03981,-1.13771 0.98425,0.98425 0 0 1 1.03717,1.01336 z m 4.826,-0.28046 a 1.127125,1.127125 0 0 1 -1.02394,1.12977 0.9763125,0.9763125 0 0 1 -1.02658,-1.00806 1.1244792,1.1244792 0 0 1 1.02658,-1.12977 0.97366667,0.97366667 0 0 1 1.02394,1.00806 z m 4.76515,-0.28311 a 1.1165417,1.1165417 0 0 1 -1.01071,1.12184 0.96572917,0.96572917 0 0 1 -1.01336,-1.00277 1.1138958,1.1138958 0 0 1 1.01336,-1.12184 0.968375,0.968375 0 0 1 1.01071,1.00277 z"
       class="cls-14 colorfff svgShape"
       id="path210" />
    <path
       fill="#d8dee8"
       style="isolation:isolate;mix-blend-mode:multiply"
       d="m 101.66029,138.88513 v 10.89026 c 0,1.54781 -1.11125,2.8575 -2.487087,2.92629 l -8.20208,0.42598 -1.542521,0.0794 -0.642938,0.0318 v -12.04657 c 0,-0.0265 0,-0.0503 0,-0.0741 a 2.31775,2.31775 0 0 1 0.3175,-0.96308 c 0,0 0.0291,-0.0185 0.03175,-0.0265 a 1.8653125,1.8653125 0 0 1 1.529292,-0.95515 l 3.466042,-0.0979 v 0.0238 z"
       class="cls-381 colord8dee8 svgShape"
       id="path212" />
    <path
       fill="#d8dee8"
       style="isolation:isolate"
       d="m 98.411203,112.34478 -0.12435,-0.0265 a 2.6140833,2.6140833 0 0 0 -0.381,-0.0344 L 74.159498,112.1463 50.727997,112.00872 h -0.132291 a 2.7384375,2.7384375 0 0 0 -1.653646,0.66145 0.1031875,0.1031875 0 0 1 -0.02646,0.0212 c -0.0635,0.0582 -0.127,0.11907 -0.187855,0.18257 v 0 l -0.103187,0.11641 a 3.0823958,3.0823958 0 0 0 -0.732896,2.01084 v 36.0971 a 3.1379583,3.1379583 0 0 0 0.08996,0.74877 2.7966458,2.7966458 0 0 0 2.185458,2.08492 2.6273125,2.6273125 0 0 0 0.579438,0.0344 l 35.856334,-1.85209 v 0 l 11.326811,-0.58737 c 1.37054,-0.0714 2.487087,-1.38113 2.487087,-2.92629 v -33.5042 c -0.0185,-1.35202 -0.873127,-2.48443 -2.005547,-2.75166 z m -30.866289,9.07256 c 1.119188,0 2.235729,-0.37306 3.354917,-0.74613 -1.119188,0.37307 -2.235729,0.74613 -3.354917,0.74613 z m 10.813521,-0.37306 c 0.743479,0 1.489604,0 2.235729,0.37306 -0.746125,-0.37306 -1.49225,-0.37306 -2.235729,-0.37306 z"
       class="cls-7 colord8dee8 svgShape"
       id="path214" />
    <path
       fill="#ffffff"
       style="isolation:isolate"
       d="m 98.006393,112.26276 -41.838562,-0.24342 -5.453063,-0.0318 a 2.8336875,2.8336875 0 0 0 -2.38125,1.32292 c 0,0 -0.05556,0.0265 -0.06615,0.0397 a 3.175,3.175 0 0 0 -0.550333,1.651 c 0,0 0.08996,36.36698 0.100541,36.48075 a 2.8204583,2.8204583 0 0 0 2.926292,2.52148 l 35.782251,-1.85208 11.493504,-0.59267 c 1.37318,-0.0714 2.484427,-1.38113 2.484427,-2.92894 v -33.54917 c -0.008,-1.54781 -1.124467,-2.80988 -2.497657,-2.81781 z m -30.461479,9.15458 c 1.119188,0 2.235729,-0.37306 3.354917,-0.74613 -1.119188,0.37307 -2.235729,0.74613 -3.354917,0.74613 z m 10.813521,-0.37306 c 0.743479,0 1.489604,0 2.235729,0.37306 -0.746125,-0.37306 -1.49225,-0.37306 -2.235729,-0.37306 z"
       class="cls-14 colorfff svgShape"
       id="path216" />
    <path
       fill="#d8dee8"
       style="isolation:isolate"
       d="m 98.009043,112.26276 -47.275754,-0.26459 c -1.5875,0 -2.860146,1.32292 -2.860146,3.00038 v 2.16429 l 52.620327,-0.0661 v -2.00818 c 0,-1.55575 -1.111247,-2.81782 -2.484427,-2.82575 z"
       class="cls-7 colord8dee8 svgShape"
       id="path218" />
    <path
       fill="#ffffff"
       style="isolation:isolate"
       d="m 52.961081,114.62284 a 0.9286875,0.9286875 0 1 1 -0.928687,-0.89958 0.9128125,0.9128125 0 0 1 0.928687,0.89958 z m 3.243792,0.008 a 0.92339583,0.92339583 0 1 1 -0.92075,-0.89694 0.90752083,0.90752083 0 0 1 0.92075,0.89694 z m 3.212041,0.005 a 0.9128125,0.9128125 0 1 1 -0.912812,-0.89165 0.8969375,0.8969375 0 0 1 0.912812,0.89165 z"
       class="cls-14 colorfff svgShape"
       id="path220" />
    <polygon
       fill="#d8dee8"
       style="isolation:isolate"
       points="282.63,459.56 282.63,560.09 107.32,568.45 107.32,461.08 "
       class="cls-7 colord8dee8 svgShape"
       transform="matrix(0.26458,0,0,0.26458,22.814,0.574)"
       id="polygon222" />
    <g
       style="isolation:isolate"
       class="cls-361 color000 svgShape"
       opacity="0.5"
       transform="matrix(0.26458,0,0,0.26458,22.814,0.574)"
       fill="#000000"
       id="g228">
      <path
         d="m 201.49,449.53 -94.17,0.43 v 5.8 l 70.11,-0.47 c 1.44,-0.42 2.88,-0.9 4.31,-1.38 -1.43,0.48 -2.87,1 -4.31,1.38 l 24.06,-0.16 z"
         class="cls-14 color000 svgShape"
         fill="#000000"
         id="path224" />
      <polygon
         points="282.63,449.15 272.6,449.2 272.6,454.65 282.63,454.58 "
         class="cls-14 color000 svgShape"
         fill="#000000"
         id="polygon226" />
    </g>
    <g
       style="isolation:isolate;mix-blend-mode:soft-light"
       class="cls-362 color000 svgShape"
       opacity="0.5"
       transform="matrix(0.26458,0,0,0.26458,22.814,0.574)"
       fill="#000000"
       id="g232">
      <path
         d="m 238.65,569.49 c -1.39,-2.27 -2.73,-4.65 -4,-7.12 -1.51,-2.89 -2.94,-5.92 -4.26,-9.09 -12.19,-29.23 -3.16,-39.6 -15.77,-58.61 -14.74,-22.22 -37,-23.19 -56.87,-34 a 68.23,68.23 0 0 1 -8.11,-5.17 60.23,60.23 0 0 1 -6.57,-5.68 62.87,62.87 0 0 1 -7.6,-9.24 l -0.61,-0.9 a 75.9,75.9 0 0 1 -7.5,-14.85 c -0.46,-1.22 -0.89,-2.42 -1.27,-3.6 0,0 -0.06,-0.1 -0.07,-0.14 l -20.5,-0.12 A 10.73,10.73 0 0 0 96.4,426 c 0,0 -0.23,0.1 -0.26,0.15 a 12.17,12.17 0 0 0 -2,6.18 c 0,0 0.35,137.82 0.35,138 a 10.68,10.68 0 0 0 11.08,9.52 l 135.25,-7 c -0.77,-1.11 -1.48,-2.22 -2.17,-3.36 z"
         class="cls-14 color000 svgShape"
         fill="#000000"
         id="path230" />
    </g>
    <g
       style="isolation:isolate"
       class="cls-382 color000 svgShape"
       clip-path="url(#F)"
       transform="matrix(0.26458,0,0,0.26458,22.814,0.574)"
       fill="#000000"
       id="g252">
      <polygon
         points="156.28,505.69 176.02,465.98 190.9,463.14 210.75,466.44 215.78,485.05 227.4,501.51 197.55,500.68 165.01,505.69 "
         class="cls-383 color000 svgShape"
         fill="#000000"
         id="polygon234" />
      <path
         d="m 199.24,573 c -47.46,2.49 -64.45,9.55 -72.21,-0.48 -7.17,-9.28 -1.23,-43.88 7.3,-53.76 13.38,-15.49 34.63,-16.68 63.22,-18.07 26.4,-1.29 42.45,-2.07 55,9 11.64,10.24 19,46.24 11.82,56.63 -6.72,9.68 -21.17,4.37 -65.13,6.68 z"
         class="cls-384 color000 svgShape"
         fill="#000000"
         id="path236" />
      <path
         d="m 181.84,501 -5.55,1.53 a 2.08,2.08 0 0 0 -1.22,3.12 c 3.78,5.77 13.75,20.2 20,21.75 6.39,1.58 18.26,-17.21 22.19,-23.79 a 2,2 0 0 0 -1.11,-3 l -4,-1.19 a 26,26 0 0 0 -10.12,-0.95 L 187,500 a 30.57,30.57 0 0 0 -5.16,1 z"
         class="cls-385 color000 svgShape"
         fill="#000000"
         id="path238" />
      <path
         fill="url(#G)"
         d="m 185.94,479.48 c 0,0 3,21.72 -1.16,23.89 l 11.9,12.68 12,-15.58 c 0,0 -4.51,-3.32 -3.32,-21.26 z"
         class="cls-386"
         id="path240"
         style="fill:url(#G)" />
      <path
         fill="url(#H)"
         d="m 209.93,455.32 c 0.7,0 1.41,0 2.12,0 0,-0.82 0,-1.6 0,-2.29 -0.24,-8.53 -9,-11.62 -14,-12.21 -5,-0.59 -17.59,5.41 -19.13,7.49 a 30.37,30.37 0 0 0 -1,6.83 c 1.28,-0.39 2.57,-0.82 3.86,-1.25 -1.29,0.43 -2.58,0.86 -3.86,1.25 -0.52,8.51 1,22.15 14.36,24 17.63,2.37 19.77,-14.42 19.81,-23.78 -0.75,-0.04 -1.46,-0.04 -2.16,-0.04 z"
         class="cls-387"
         id="path242"
         style="fill:url(#H)" />
      <path
         fill="url(#I)"
         d="m 177.75,464.4 c 0,0 -1,-4.49 -4.32,-1.66 -3.32,2.83 2,10.24 6.35,9.88 z"
         class="cls-388"
         id="path244"
         style="fill:url(#I)" />
      <path
         fill="url(#J)"
         d="m 211.44,461 c -0.55,0.37 -2.13,10.84 -2.13,10.84 0,0 2.76,0.29 4.75,-3.48 1.99,-3.77 2.94,-11.18 -2.62,-7.36 z"
         class="cls-389"
         id="path246"
         style="fill:url(#J)" />
      <path
         d="m 209.92,464.58 a 12.49,12.49 0 0 1 -6.8,5.53 c -2.36,0.67 -4,0.11 -7.16,0 -6.44,-0.3 -8.48,2.74 -11.53,1.45 -1.27,-0.54 -4.22,-2.06 -4.85,-5 a 24.11,24.11 0 0 1 -0.2,-7.62 42.78,42.78 0 0 1 0.77,-4.43 c -3.31,1.09 -2.37,3.92 -5.68,4.11 0.46,0.58 -1,1.81 -0.46,2.49 1.54,2 1.3,2.61 3.47,6.6 a 101.17,101.17 0 0 1 3.41,10.82 c 1.09,4.27 1,5.14 2,6.51 3.51,4.72 11.48,4.13 14.82,3.88 3.82,-0.29 8.57,-0.64 10.95,-4 1.29,-1.82 1.13,-3.44 1.42,-7.78 a 111.49,111.49 0 0 1 1.65,-12.71 40.1,40.1 0 0 1 1.55,-5.4 c 0.55,-1.46 -0.4,-2 0.17,-2.93 -1.51,-0.27 -1.51,-0.7 -3,-0.71 a 17,17 0 0 1 -0.53,9.19 z"
         class="cls-333 color000 svgShape"
         fill="#000000"
         id="path248" />
      <path
         fill="url(#K)"
         d="m 189.8,474.79 a 15.86,15.86 0 0 0 10.39,-0.42 c 0.43,-0.17 0.8,0.29 0.44,0.56 a 9.68,9.68 0 0 1 -6,2.09 12.5,12.5 0 0 1 -5.16,-1.63 c -0.47,-0.22 -0.12,-0.74 0.33,-0.6 z"
         class="cls-390"
         id="path250"
         style="fill:url(#K)" />
    </g>
    <path
       fill="#bdbdbd"
       style="isolation:isolate"
       d="m 63.277185,116.08334 a 6.858,6.858 0 0 0 1.5875,-4.29683 c 0,-4.57465 -4.870979,-8.2841 -10.879666,-8.2841 -6.008688,0 -10.879667,3.70416 -10.879667,8.2841 0,4.57993 4.870979,8.28145 10.879667,8.28145 a 13.350875,13.350875 0 0 0 6.085416,-1.41287 c 1.145646,0.19579 2.928938,0.52917 3.868209,0.70115 a 0.36247917,0.36247917 0 0 0 0.404812,-0.48419 z"
       class="cls-391 color1812d6 svgShape"
       id="path254" />
    <g
       style="isolation:isolate;mix-blend-mode:multiply"
       class="cls-348 color000 svgShape"
       opacity="0.3"
       transform="matrix(0.26458,0,0,0.26458,22.814,0.574)"
       fill="#000000"
       id="g258">
      <path
         d="m 140.27,427 c -9.22,-3.87 -19.36,4.31 -25.7,-1.4 -6.34,-5.71 0.52,-17.12 -5.6,-25.23 -2.92,-3.86 -7.82,-5.69 -13.43,-6.33 -11.36,5.57 -18.89,15.28 -18.89,26.34 0,17.29 18.41,31.3 41.12,31.3 a 50.46,50.46 0 0 0 23,-5.34 c 3.42,0.59 8.33,1.48 12,2.16 C 150,434.43 145.07,429 140.27,427 Z"
         class="cls-357 color000 svgShape"
         fill="#000000"
         id="path256" />
    </g>
    <path
       fill="#00ff00"
       style="isolation:isolate"
       d="m 61.179039,108.75967 a 0.41539583,0.41539583 0 0 1 -0.418041,0.4154 H 47.531831 a 0.41539583,0.41539583 0 0 1 -0.418042,-0.4154 v 0 a 0.41804167,0.41804167 0 0 1 0.418042,-0.41804 h 13.229167 a 0.41804167,0.41804167 0 0 1 0.418041,0.41804 z"
       class="cls-392 color0f0 svgShape"
       id="path260" />
    <path
       fill="#2426f1"
       style="isolation:isolate"
       d="m 61.179039,111.26528 a 0.41804167,0.41804167 0 0 1 -0.418041,0.41804 H 47.531831 a 0.41804167,0.41804167 0 0 1 -0.418042,-0.41804 v 0 a 0.41804167,0.41804167 0 0 1 0.418042,-0.41804 h 13.229167 a 0.41804167,0.41804167 0 0 1 0.418041,0.41804 z"
       class="cls-393 colorf15a24 svgShape"
       id="path262" />
    <path
       fill="#ffffff"
       style="isolation:isolate"
       d="m 54.924289,113.77088 a 0.41804167,0.41804167 0 0 1 -0.418041,0.41804 H 47.54506 a 0.41804167,0.41804167 0 0 1 -0.418042,-0.41804 v 0 a 0.41804167,0.41804167 0 0 1 0.418042,-0.41804 h 6.961188 a 0.41804167,0.41804167 0 0 1 0.418041,0.41804 z m 3.344334,0 a 0.41804167,0.41804167 0 0 1 -0.418042,0.41804 h -1.698625 a 0.41804167,0.41804167 0 0 1 -0.418042,-0.41804 v 0 a 0.41804167,0.41804167 0 0 1 0.418042,-0.41804 h 1.677458 a 0.41804167,0.41804167 0 0 1 0.418042,0.41804 z m -8.628063,2.31511 a 0.41804167,0.41804167 0 0 1 -0.418042,0.41804 H 47.54506 a 0.41804167,0.41804167 0 0 1 -0.418042,-0.41804 v 0 a 0.41804167,0.41804167 0 0 1 0.418042,-0.41805 h 1.677458 a 0.41804167,0.41804167 0 0 1 0.418042,0.41805 z m 5.49275,0 a 0.41804167,0.41804167 0 0 1 -0.418041,0.41804 h -3.85498 a 0.41804167,0.41804167 0 0 1 -0.418042,-0.41804 v 0 a 0.41804167,0.41804167 0 0 1 0.418042,-0.41805 h 3.847042 a 0.41804167,0.41804167 0 0 1 0.418042,0.41805 z"
       class="cls-14 colorfff svgShape"
       id="path264" />
    <path
       fill="#ffff00"
       style="isolation:isolate"
       d="m 60.742477,116.08599 a 0.41804167,0.41804167 0 0 1 -0.418042,0.41804 h -3.847041 a 0.41804167,0.41804167 0 0 1 -0.418042,-0.41804 v 0 a 0.41804167,0.41804167 0 0 1 0.418042,-0.41805 h 3.847041 a 0.41804167,0.41804167 0 0 1 0.418042,0.41805 z"
       class="cls-394 colorff0 svgShape"
       id="path266" />
    <path
       fill="#f2f2f2"
       style="isolation:isolate"
       d="m 74.244164,137.43786 c 0,0 1.158875,-0.42069 1.198563,0 0.03969,0.42069 -0.0926,5.82084 -0.336021,5.82084 -0.243417,0 -1.468438,-5.4954 -0.862542,-5.82084 z"
       class="cls-385 colorf2f2f2 svgShape"
       id="path268" />
    <circle
       style="isolation:isolate"
       cx="75.07"
       cy="143.57401"
       r="0.30700001"
       fill="#f2f2f2"
       class="cls-385 colorf2f2f2 svgShape"
       id="circle270" />
    <path
       fill="#f2f2f2"
       style="isolation:isolate"
       d="m 74.103935,149.32824 c 0,0 0.838729,-5.51127 0.965729,-5.45042 0.127,0.0609 -0.219604,5.29167 -0.529166,5.45042 z"
       class="cls-385 colorf2f2f2 svgShape"
       id="path272" />
    <path
       fill="#ffffff"
       style="isolation:isolate"
       d="m 62.795644,134.76292 c 0,0 5.683249,-1.26206 6.426729,-4.29418 0.968375,-3.94759 0.632354,-10.7659 2.346854,-10.84792 a 9.7234375,9.7234375 0 0 1 3.193521,0.43656 c 0,0 1.801812,-1.82298 2.733145,-0.96308 0.931334,0.85989 1.145646,1.88912 1.0795,4.88156 -0.111125,5.00856 5.257271,10.51719 8.347605,14.89869 3.090333,4.3815 6.646333,4.3815 6.646333,4.3815 0,0 -1.000125,-7.97984 -3.481917,-8.59367 -2.481791,-0.61383 -6.302375,-0.55298 -7.876646,-3.78619 -1.57427,-3.2332 -2.767541,-0.52916 -2.362729,-4.54818 0.404813,-4.01902 0.370417,-10.81352 -6.193896,-10.35844 -2.751666,0.19314 -3.463395,1.65364 -4.08252,2.86808 -1.68275,3.30465 -4.6355,15.88029 -6.775979,15.92527 z"
       class="cls-14 colorfff svgShape"
       id="path274" />
    <path
       fill="#ffffff"
       stroke="#000000"
       stroke-linecap="round"
       stroke-linejoin="round"
       stroke-width="0.397"
       style="isolation:isolate"
       d="m 71.762373,118.59688 a 7.7073125,7.7073125 0 0 0 4.7625,-0.35719 m -4.720167,0.0741 a 7.1172917,7.1172917 0 0 0 4.564062,-0.35454"
       class="cls-395 colorfff svgShape colorStroke000 svgStroke"
       id="path276" />
    <path
       fill="#8c6239"
       style="isolation:isolate"
       d="m 143.67083,148.0212 a 1.762125,1.762125 0 0 0 0.55827,-0.73554 c 0.14817,-0.37836 0.045,-0.54769 0.22754,-0.79375 a 0.94191667,0.94191667 0 0 1 1.04246,-0.28311 0.4206875,0.4206875 0 0 1 0.20902,0.16404 c 0.14552,0.24871 -0.17992,0.67469 -0.43921,0.90223 a 3.6803542,3.6803542 0 0 1 -0.48154,0.30427 2.00025,2.00025 0 0 0 -0.65881,0.83873 z m 10.84527,-2.07169 a 1.7885833,1.7885833 0 0 1 -0.79375,-0.45773 c -0.2831,-0.29104 -0.26458,-0.48683 -0.51594,-0.63235 a 0.936625,0.936625 0 0 0 -1.05833,0.14552 0.41539583,0.41539583 0 0 0 -0.127,0.23283 c -0.0397,0.28311 0.42598,0.55033 0.75406,0.65881 a 3.7359167,3.7359167 0 0 0 0.56356,0.0926 2.0134792,2.0134792 0 0 1 0.93398,0.5133 z"
       class="cls-420 color8c6239 svgShape"
       id="path278" />
    <path
       fill="#2426f1"
       style="isolation:isolate"
       d="m 153.47893,146.30141 c -0.14287,0.68527 0.59796,1.29645 1.13242,1.89441 1.07156,1.20386 2.19604,3.34698 1.78329,5.18584 a 3.9925625,3.9925625 0 0 1 -1.96585,2.60614 c -1.09802,0.55563 -1.75419,0.0503 -2.89454,0.70909 -0.0847,0.0476 -1.5293,0.90487 -1.57163,2.05845 -0.0503,1.42611 2.04258,2.93952 3.83646,3.05594 3.27819,0.21167 7.22842,-4.14867 7.04585,-8.46667 -0.20108,-4.70958 -5.26256,-8.44814 -6.71777,-7.81314 a 1.190625,1.190625 0 0 0 -0.64823,0.76994 z"
       class="cls-393 colorf15a24 svgShape"
       id="path280" />
    <polygon
       fill="url(#L)"
       style="isolation:isolate;fill:url(#L)"
       points="491.4,735.01 488.34,735.12 487.89,739.63 489.99,739.24 "
       class="cls-428"
       transform="matrix(0.26458,0,0,0.26458,22.814,0.574)"
       id="polygon282" />
    <path
       fill="url(#M)"
       style="isolation:isolate;fill:url(#M)"
       d="m 155.40775,173.02432 a 30.175729,30.175729 0 0 1 -0.635,5.41338 c -0.33867,1.5875 -0.52917,1.86796 -0.6403,2.96862 -0.22754,2.39713 0.54505,2.73844 0.68527,5.44777 a 16.459729,16.459729 0 0 1 -0.94985,6.27327 17.068271,17.068271 0 0 1 -0.77523,1.87855 c -0.26458,0.23812 -0.69321,0.14816 -1.13506,0.0582 -0.16404,-2.71462 -0.36513,-5.2652 -0.52917,-7.97983 q -0.79375,-6.11981 -1.5875,-12.24227 z"
       class="cls-429"
       id="path284" />
    <path
       fill="url(#N)"
       style="isolation:isolate;mix-blend-mode:multiply;fill:url(#N)"
       d="m 151.95758,195.06411 c -0.16404,-2.71462 -0.36513,-5.2652 -0.52917,-7.97983 q -0.79375,-6.11981 -1.5875,-12.24227 l 5.55625,-1.81769 c 0,0.14023 -0.0132,0.26459 -0.0185,0.41275 -2.59556,2.2569 -3.10356,4.04284 -3.07975,5.26257 0.0318,1.47637 0.83873,2.20927 0.68263,4.35239 -0.11377,1.53194 -0.57415,1.80181 -0.57415,3.175 0,1.78065 0.76465,2.78077 1.13771,3.81 0.37306,1.02923 0.48683,2.40506 -0.20902,4.40796 -0.09,0.20637 -0.17727,0.39158 -0.26459,0.55033 -0.254,0.24871 -0.67204,0.15875 -1.11389,0.0688 z"
       class="cls-430"
       opacity="0.3"
       id="path286" />
    <path
       fill="url(#O)"
       style="isolation:isolate;fill:url(#O)"
       d="m 152.22745,196.67278 c 0.26459,-0.32544 0.50536,-0.30162 0.55034,-0.52917 a 0.45508333,0.45508333 0 0 0 -0.23813,-0.46302 c -0.22754,-0.10848 -0.49477,0.0767 -0.55562,0.11642 -0.41275,0.28046 -0.2884,0.70379 -0.67734,0.89429 a 1.0583333,1.0583333 0 0 0 -0.33337,0.20902 c -0.0556,0.0529 -0.19315,0.18786 -0.15875,0.26459 0.0344,0.0767 0.28839,0.0953 0.52917,0.0873 a 1.0583333,1.0583333 0 0 0 0.56091,-0.10319 c 0.17992,-0.10319 0.12171,-0.2249 0.32279,-0.47625 z"
       class="cls-431"
       id="path288" />
    <polygon
       fill="url(#P)"
       style="isolation:isolate;fill:url(#P)"
       points="489.01,700.25 487.01,702.58 490.94,704.12 492.09,702.32 "
       class="cls-432"
       transform="matrix(0.26458,0,0,0.26458,22.814,0.574)"
       id="polygon290" />
    <path
       fill="url(#Q)"
       style="isolation:isolate;fill:url(#Q)"
       d="m 153.25404,187.12397 c -0.0609,-0.4154 0.12171,-0.57679 -0.0132,-0.75671 a 0.4445,0.4445 0 0 0 -0.49742,-0.14023 c -0.23548,0.0952 -0.2831,0.4154 -0.29369,0.48683 -0.0741,0.49478 0.32015,0.69057 0.19844,1.10596 a 1.0186458,1.0186458 0 0 0 -0.0741,0.38629 c 0,0.0767 0,0.26459 0.0953,0.30163 0.0952,0.037 0.26458,-0.14817 0.42069,-0.32544 a 1.0371667,1.0371667 0 0 0 0.30162,-0.48154 c 0.0397,-0.2196 -0.0873,-0.25665 -0.13758,-0.57679 z"
       class="cls-433"
       id="path292" />
    <path
       fill="url(#R)"
       style="isolation:isolate;fill:url(#R)"
       d="m 147.16862,171.14049 a 28.709937,28.709937 0 0 0 -2.84427,9.39006 c -0.15875,1.38113 -0.14288,2.23838 0.26458,3.09563 1.42611,3.07446 6.40027,3.27818 7.14375,3.29935 l 0.74613,-1.52664 a 7.6385208,7.6385208 0 0 0 -2.62467,-2.88925 c -1.05833,-0.66146 -1.46314,-0.52917 -1.72508,-0.96309 -1.05834,-1.78329 4.6355,-5.64621 3.78354,-8.21796 -0.28575,-0.889 -1.41552,-1.79123 -4.74398,-2.1881 z"
       class="cls-434"
       id="path294" />
    <path
       fill="#2426f1"
       style="isolation:isolate"
       d="m 151.36756,156.94295 c -2.09021,0.35983 -3.683,0.73289 -4.39473,1.82827 -0.75142,1.15887 0.44185,2.02935 0.76729,4.56935 0.49742,3.88673 -1.73831,5.33929 -1.09537,9.26042 a 10.011833,10.011833 0 0 0 0.43656,1.69333 4.0057917,4.0057917 0 0 0 1.65364,2.05317 10.358437,10.358437 0 0 0 2.09286,1.01335 c 2.11666,0.74084 3.175,0.30957 6.02191,0.47361 4.6699,0.26458 5.3684,1.61925 7.47713,0.79375 2.10872,-0.8255 3.67505,-3.11679 3.22261,-4.08781 -0.26458,-0.58209 -1.12447,-0.21961 -2.34949,-0.93398 -1.5875,-0.92075 -1.32291,-2.17752 -2.59556,-3.25438 -1.85208,-1.54781 -3.60891,0.0159 -5.18319,-1.32292 -1.57427,-1.33879 -1.78593,-4.67783 -1.10595,-6.65956 0.44185,-1.28852 0.45243,-2.68816 0.78052,-4.01108 a 0.85725,0.85725 0 0 0 -0.0212,-0.48419 c -0.26458,-0.75935 -1.651,-0.90487 -2.7014,-1.00542 a 12.012083,12.012083 0 0 0 -3.00566,0.0741 z"
       class="cls-393 colorf15a24 svgShape"
       id="path296" />
    <path
       fill="url(#S)"
       style="isolation:isolate;mix-blend-mode:multiply;fill:url(#S)"
       d="m 164.08343,177.14653 c -0.64823,-0.42862 -0.29633,-1.651 -1.25412,-2.29923 -0.889,-0.6006 -1.5875,0.18521 -2.8919,-0.21696 -1.6801,-0.51329 -1.5875,-2.12989 -3.20146,-2.64583 -1.15623,-0.37042 -1.50548,0.36777 -3.175,0.40217 -1.66952,0.0344 -3.85233,-0.65617 -5.2361,-2.42359 a 5.9901667,5.9901667 0 0 1 -1.09538,-2.29129 c -0.4445,1.43934 -0.92868,2.83104 -0.58472,4.93184 a 10.054167,10.054167 0 0 0 0.60854,2.14841 2.9792083,2.9792083 0 0 0 1.05833,1.32292 10.490729,10.490729 0 0 0 2.51883,1.29381 c 2.11667,0.74083 3.175,0.30956 6.02192,0.47361 4.6699,0.26458 5.3684,1.61925 7.47713,0.79375 a 6.06425,6.06425 0 0 0 2.99507,-2.64584 c -1.84678,1.32556 -2.77282,1.47109 -3.24114,1.15623 z"
       class="cls-435"
       opacity="0.3"
       id="path298" />
    <path
       fill="#8c6239"
       style="isolation:isolate"
       d="m 150.32245,151.03216 c 0,0 -0.91016,1.70656 -0.96837,2.91041 -0.0582,1.20386 1.29646,1.1139 1.29646,1.1139 l -0.0529,0.75406 a 1.6324792,1.6324792 0 0 1 -1.05833,1.42875 l -0.52917,0.19579 c 0,0 3.48456,0.74613 5.38692,-0.59796 l -0.54769,-0.0529 a 1.6404167,1.6404167 0 0 1 -1.47108,-1.46579 l -0.0318,-0.32279 c 0,0 0.58737,-3.74121 -2.02407,-3.96346 z"
       class="cls-420 color8c6239 svgShape"
       id="path300" />
    <path
       fill="#2426f1"
       style="isolation:isolate"
       d="m 144.72387,148.23816 c 0.32808,0.61912 -0.21696,1.41023 -0.56621,2.13254 -0.6985,1.44991 -1.18798,3.82058 -0.2831,5.47687 a 4.0057917,4.0057917 0 0 0 2.60879,1.96321 c 1.2065,0.23019 1.70127,-0.43656 2.97921,-0.11906 0.0926,0.0238 1.71714,0.44979 2.07433,1.54781 0.4445,1.35467 -1.15094,3.38931 -2.84162,3.99521 -3.09298,1.10596 -8.09361,-1.99496 -9.10961,-6.20448 -1.10596,-4.58258 2.72786,-9.56998 4.30213,-9.3636 a 1.1985625,1.1985625 0 0 1 0.83608,0.5715 z"
       class="cls-393 colorf15a24 svgShape"
       id="path302" />
    <path
       style="isolation:isolate"
       d="m 151.058,153.10384 c 0.13758,0 0.25135,-0.18785 0.3466,-0.13493 0.0952,0.0529 0.0873,0.30956 0,0.48948 a 0.67733333,0.67733333 0 0 1 -0.25135,0.26458 1.6721667,1.6721667 0 0 1 0.29897,0.67733 c 0.12436,0.66411 -0.22754,1.19856 -0.3757,1.51077 -0.66146,1.41023 0.36777,3.63802 1.50018,4.7625 0.91811,0.91282 1.34673,0.54504 1.89442,1.29382 1.05833,1.45256 -0.40481,3.05329 0.14817,5.00856 0.83873,2.97656 5.53773,3.86291 5.73352,3.89731 l 0.20902,0.0344 c 2.11667,0.33602 5.29166,0.84402 7.55384,-0.88635 1.68275,-1.29646 2.45534,-3.54807 2.32834,-5.53509 a 6.4214375,6.4214375 0 0 0 -1.80446,-4.10368 c -0.26459,-0.26459 -1.77271,-1.77536 -3.82587,-1.79388 -1.08479,0 -1.30439,0.37306 -2.13518,0.13758 -1.13771,-0.32279 -1.85209,-1.35731 -2.27278,-2.00025 -0.79375,-1.18004 -0.4736,-1.43139 -1.05833,-2.01083 -1.12712,-1.13771 -2.44739,-0.24342 -3.65125,-1.24883 -1.20385,-1.00542 -0.47096,-2.33098 -1.6166,-3.175 -1.14565,-0.84402 -3.43959,-0.57415 -3.92377,0.47625 -0.40482,0.88371 0.47889,2.37066 0.90223,2.33627 z"
       fill="#000000"
       class="color000 svgShape"
       id="path304" />
    <path
       fill="url(#T)"
       style="isolation:isolate;fill:url(#T)"
       d="m 122.52533,147.19834 c 0,0 -0.44186,-2.30716 -0.88371,-2.99508 a 3.8999583,3.8999583 0 0 0 -1.26735,-1.12977 c 0,0 -0.17198,0.28046 0.3757,0.87842 0.54769,0.59795 0.0926,0.65352 0,0.84402 -0.0926,0.1905 0.10584,0.88106 0.50007,1.12448 0.39423,0.24341 0.52916,1.5875 0.52916,1.5875 z"
       class="cls-436"
       id="path306" />
    <path
       fill="#1e4839"
       style="isolation:isolate"
       d="m 121.23945,146.90466 1.42346,-0.24607 a 22.457833,22.457833 0 0 0 5.04561,6.35 c 1.60073,1.38907 2.64583,2.286 4.33387,2.7358 2.5109,0.6641 4.68048,-0.11642 4.96094,0.59002 0.13758,0.34395 -0.33867,0.71702 -1.10331,1.63248 -2.2278,2.66435 -2.01877,4.09839 -3.24115,4.49791 -1.01335,0.32544 -2.032,-0.37835 -3.75973,-1.60866 -1.56898,-1.12184 -3.54012,-2.52678 -5.20435,-5.207 a 16.60525,16.60525 0 0 1 -2.45534,-8.74448 z m 20.93119,9.7155 c 0.23283,0.0873 3.75179,1.48695 4.47675,5.16202 0.0582,0.29633 0.62442,3.45281 -1.51871,5.68325 -2.39977,2.50031 -7.02204,2.43946 -8.8556,0.3466 a 3.7359167,3.7359167 0 0 1 -0.78052,-1.48167 v 0 l 0.48419,-1.28322 a 3.1406042,3.1406042 0 0 1 1.82033,-0.9869 c 1.05833,-0.26458 1.85208,0.21167 2.46062,-0.29898 a 1.5875,1.5875 0 0 0 0.46302,-1.05833 c 0.20109,-1.23561 -0.49477,-1.99761 -0.54504,-2.75961 -0.0397,-0.56885 -0.23812,-1.81768 0.50536,-2.62996 a 2.397125,2.397125 0 0 1 1.4896,-0.6932 z"
       class="cls-437 color079ed5 svgShape"
       id="path308" />
    <path
       fill="url(#U)"
       style="isolation:isolate;fill:url(#U)"
       d="m 143.54383,197.56707 c 0.0397,-0.22489 0.76994,-0.43127 1.13242,-0.127 0.17991,0.15081 0.30427,0.45509 0.20108,0.59267 -0.0397,0.0503 0.11642,0.13758 -0.0318,0.14023 -0.49213,0.005 -1.34408,-0.381 -1.30175,-0.6059 z"
       class="cls-438"
       id="path310" />
    <path
       fill="url(#V)"
       style="isolation:isolate;fill:url(#V)"
       d="m 144.30847,197.64909 0.75142,-0.10583 c -0.3466,-0.41804 -0.2831,-1.75419 -0.2831,-1.75419 l -0.79375,0.17992 c 0,0 0.09,0.36512 0.24606,0.90487 a 3.52425,3.52425 0 0 1 0.0794,0.77523 z"
       class="cls-439"
       id="path312" />
    <path
       fill="url(#W)"
       style="isolation:isolate;fill:url(#W)"
       d="m 144.24233,197.55649 c 0,0 0.90487,-0.20902 1.00277,-0.0291 0.0979,0.17992 0.17462,0.66146 -0.39952,0.64559 -0.57415,-0.0159 -0.65352,-0.46302 -0.60325,-0.61648 z"
       class="cls-440"
       id="path314" />
    <path
       fill="url(#X)"
       style="isolation:isolate;fill:url(#X)"
       d="m 133.23566,198.41638 c 0.0714,-0.2196 0.8255,-0.32014 1.14036,0.0318 0.1561,0.17463 0.23548,0.49213 0.11377,0.61384 -0.045,0.045 0.0979,0.15346 -0.0503,0.13494 -0.48684,-0.0635 -1.27529,-0.56357 -1.20386,-0.78053 z"
       class="cls-441"
       id="path316" />
    <path
       fill="url(#Y)"
       style="isolation:isolate;fill:url(#Y)"
       d="m 133.98179,198.60424 h 0.75141 c -0.28575,-0.46302 -0.0344,-1.77536 -0.0344,-1.77536 l -0.81756,0.0635 c 0,0 0.0397,0.37571 0.11642,0.93398 a 3.4819167,3.4819167 0 0 1 -0.0159,0.77788 z"
       class="cls-442"
       id="path318" />
    <path
       fill="url(#Z)"
       style="isolation:isolate;fill:url(#Z)"
       d="m 132.01593,169.90753 a 35.372146,35.372146 0 0 0 -1.17739,5.38427 c -0.92075,6.70454 1.03716,6.91886 0.67204,14.34571 -0.11642,2.38125 2.05581,7.8396 2.24631,7.95867 a 2.1642917,2.1642917 0 0 0 0.29898,0.0132 2.9712708,2.9712708 0 0 0 0.76465,-0.127 c 0.34395,-0.0609 1.5875,-3.41842 1.29645,-5.41603 -0.20372,-1.41287 -0.14287,-2.92893 -0.0265,-5.96106 0.0212,-0.49212 1.27794,-9.56468 1.27794,-9.56468 v 0 c 0.381,3.35756 0.82286,6.21241 1.20386,8.42433 1.22502,7.10935 5.20964,11.40089 5.42131,11.48027 a 0.8493125,0.8493125 0 0 0 0.72231,-0.0476 0.48947917,0.48947917 0 0 0 0.17992,-0.20637 c 0.10848,-0.0847 -0.0291,-7.09613 -1.24619,-12.37192 -1.76212,-7.67291 -0.99483,-9.45091 -1.5531,-12.87198 -0.48419,-2.96068 -10.08063,-1.03981 -10.08063,-1.03981 z"
       class="cls-443"
       id="path320" />
    <path
       fill="#1e4839"
       style="isolation:isolate"
       d="m 139.14116,156.0222 c -1.1721,-0.0344 -3.86291,-0.44715 -5.34723,0.88635 -0.0238,0.0238 0.28046,0.18521 0.12965,0.35984 a 10.033,10.033 0 0 0 -1.05833,1.50283 10.186458,10.186458 0 0 0 -0.87842,2.17487 18.875375,18.875375 0 0 0 -0.69321,3.79677 c -0.26458,3.56394 0,5.20965 0.24342,6.32884 a 12.342812,12.342812 0 0 0 7.03791,1.03187 10.932583,10.932583 0 0 0 3.50838,-1.15623 c -0.84402,-2.55323 -0.18256,-3.91848 0.12964,-5.18054 0.4445,-1.79387 0.45244,-1.65894 0.82021,-3.08504 0.60325,-2.35479 0.70379,-4.7625 0.2884,-5.25198 -1.1139,-1.32821 -3.13267,-1.37583 -4.18042,-1.40758 z"
       class="cls-437 color079ed5 svgShape"
       id="path322" />
    <path
       fill="url(#aa)"
       style="isolation:isolate;fill:url(#aa)"
       d="m 133.93945,198.5037 c 0,0 0.92605,-0.0794 0.99748,0.11112 0.0714,0.1905 0.0794,0.67734 -0.48683,0.58209 -0.56621,-0.0952 -0.59267,-0.55034 -0.51065,-0.69321 z"
       class="cls-444"
       id="path324" />
    <path
       fill="#fbb03b"
       style="isolation:isolate"
       d="m 135.4317,152.01111 a 2.8522083,2.8522083 0 0 1 0.30692,-2.05316 c 0.43656,-0.80698 0.54769,-0.91546 0.75671,-1.05834 l 0.29104,-0.17991 h 0.0344 a 3.3866667,3.3866667 0 0 1 0.94721,-0.0582 c 0.4101,0.09 0.84667,1.75948 0.72231,4.12485 0.0185,0.09 0.0344,0.17992 0.0503,0.26458 0.0635,0.37307 0.11642,0.73819 0.15611,1.09538 a 1.0265833,1.0265833 0 0 0 0.58737,0.75671 c 0.58738,0.32808 1.15888,0.46302 1.32292,0.98954 0.09,0.28575 -1.74361,0.74612 -2.64584,0.64294 -2.032,0.0159 -3.683,-0.20109 -3.50573,-0.52917 0.0794,-0.14287 1.15623,-0.81756 1.75419,-1.3679 0.54769,-0.50535 0.50271,-1.02393 0.54769,-1.397 -0.17198,-0.082 -1.12713,-0.53181 -1.32556,-1.23031 z"
       class="cls-397 colorfbb03b svgShape"
       id="path326" />
    <path
       fill="#8c6239"
       style="isolation:isolate"
       d="m 135.93441,148.0503 c 0,0.7329 0.34661,1.51606 0.52917,1.64042 a 1.2594167,1.2594167 0 0 1 0.26458,0.29104 0.38364583,0.38364583 0 0 1 0.0423,0.0873 c 0.1614,0.46038 -0.57414,1.00277 -0.43127,1.20915 0.10319,0.15081 0.6006,-0.0503 0.65881,0.0794 0.0582,0.12964 -0.35718,0.3757 -0.29368,0.52916 0.0635,0.15346 0.30162,0 0.46302,0.17727 0.082,0.0847 0.0582,0.15082 0.14287,0.40746 a 2.1695833,2.1695833 0 0 0 0.16669,0.39159 c 0.26458,0.43127 0.97102,0.58737 1.1086,0.41539 0.037,-0.0476 0,-0.0873 0.045,-0.24871 a 1.1959167,1.1959167 0 0 1 0.14023,-0.32014 c 0.14817,-0.24871 0.50536,-0.42334 0.86519,-0.68263 a 2.3600833,2.3600833 0 0 0 0.90487,-1.03187 c 0.0212,-0.0503 0.0317,-0.0873 0.0423,-0.11377 a 2.7305,2.7305 0 0 0 -0.0688,-1.82033 c -0.40745,-0.81756 -1.32291,-0.42862 -2.07433,-1.23825 -0.86519,-0.93398 -0.34925,-2.20927 -0.82021,-2.3495 -0.52387,-0.17198 -1.69068,1.22502 -1.68539,2.57704 z"
       class="cls-420 color8c6239 svgShape"
       id="path328" />
    <path
       fill="#f7931e"
       style="isolation:isolate"
       d="m 136.58529,151.10624 c 0.17991,-0.24606 0.49477,-0.0132 0.49741,0.30427 0.003,0.3175 -0.30691,0.65088 -0.60854,0.58738 -0.30162,-0.0635 -0.11906,-0.55828 0.11113,-0.89165 z"
       class="cls-417 colorf7931e svgShape"
       id="path330" />
    <path
       fill="#bdbdbd"
       style="isolation:isolate"
       d="m 141.7182,169.34397 a 0.04497917,0.04497917 0 0 1 -0.0476,-0.0397 7.14375,7.14375 0 0 1 0.35189,-2.98186 c 0.0556,-0.19579 0.10848,-0.381 0.15346,-0.5662 0.26459,-1.0213 0.36513,-1.41553 0.48154,-1.83357 0.0767,-0.26458 0.15346,-0.55033 0.26459,-1.01864 a 0.05027083,0.05027083 0 0 1 0.0582,-0.0317 0.047625,0.047625 0 0 1 0.0344,0.0556 c -0.12435,0.46831 -0.20108,0.74877 -0.26458,1.02129 -0.11906,0.4154 -0.22754,0.80962 -0.48154,1.83092 -0.045,0.1852 -0.0979,0.37306 -0.15611,0.56885 a 7.0696667,7.0696667 0 0 0 -0.3466,2.94481 0.047625,0.047625 0 0 1 -0.0397,0.0503 z"
       class="cls-391 color1812d6 svgShape"
       id="path332" />
  </g>
</svg>
